<svg width="38" height="26" viewBox="0 0 38 26" fill="none" xmlns="http://www.w3.org/2000/svg">
<g clip-path="url(#clip0)">
<path d="M24.4708 22.556C25.4631 22.556 26.2675 21.7021 26.2675 20.6488C26.2675 19.5955 25.4631 18.7416 24.4708 18.7416C23.4785 18.7416 22.6741 19.5955 22.6741 20.6488C22.6741 21.7021 23.4785 22.556 24.4708 22.556Z" fill="#FBD56F"/>
<path opacity="0.1" d="M24.4708 22.556C25.4631 22.556 26.2675 21.7021 26.2675 20.6488C26.2675 19.5955 25.4631 18.7416 24.4708 18.7416C23.4785 18.7416 22.6741 19.5955 22.6741 20.6488C22.6741 21.7021 23.4785 22.556 24.4708 22.556Z" fill="black"/>
<path d="M24.7809 22.556C25.7732 22.556 26.5776 21.7211 26.5776 20.6913C26.5776 19.6614 25.7732 18.8265 24.7809 18.8265C23.7886 18.8265 22.9841 19.6614 22.9841 20.6913C22.9841 21.7211 23.7886 22.556 24.7809 22.556Z" fill="#FBD56F"/>
<path d="M25.5087 22.3811L25.3218 22.2771C25.3218 22.2771 25.2344 22.6418 25.2629 22.9018C25.2658 22.9282 25.2766 22.953 25.294 22.973C25.3114 22.993 25.3345 23.0072 25.3603 23.0137C25.7902 23.1204 27.8394 23.5753 29.2485 22.9346C29.2689 22.9253 29.2866 22.9108 29.2997 22.8926C29.3129 22.8744 29.321 22.853 29.3234 22.8307C29.3407 22.6709 29.2795 22.3413 29.2551 22.2771C29.2025 22.1388 25.5087 22.3811 25.5087 22.3811Z" fill="#FBD56F"/>
<path opacity="0.1" d="M25.5087 22.3811L25.3218 22.2771C25.3218 22.2771 25.2344 22.6418 25.2629 22.9018C25.2658 22.9282 25.2766 22.953 25.294 22.973C25.3114 22.993 25.3345 23.0072 25.3603 23.0137C25.7902 23.1204 27.8394 23.5753 29.2485 22.9346C29.2689 22.9253 29.2866 22.9108 29.2997 22.8926C29.3129 22.8744 29.321 22.853 29.3234 22.8307C29.3407 22.6709 29.2795 22.3413 29.2551 22.2771C29.2025 22.1388 25.5087 22.3811 25.5087 22.3811Z" fill="black"/>
<path d="M27.2884 22.7204C28.3746 22.7204 29.2551 22.5219 29.2551 22.2771C29.2551 22.0322 28.3746 21.8337 27.2884 21.8337C26.2023 21.8337 25.3218 22.0322 25.3218 22.2771C25.3218 22.5219 26.2023 22.7204 27.2884 22.7204Z" fill="#FBD56F"/>
<path d="M26.26 21.7271L26.0731 21.623C26.0731 21.623 25.9857 21.9878 26.0143 22.2478C26.0171 22.2742 26.0279 22.299 26.0453 22.3191C26.0628 22.3391 26.0859 22.3532 26.1116 22.3597C26.5415 22.4665 28.5907 22.9214 29.9999 22.2806C30.0203 22.2713 30.0379 22.2568 30.0511 22.2386C30.0642 22.2204 30.0724 22.1991 30.0748 22.1767C30.092 22.0169 30.0308 21.6872 30.0064 21.623C29.9539 21.4848 26.26 21.7271 26.26 21.7271Z" fill="#FBD56F"/>
<path opacity="0.1" d="M26.26 21.7271L26.0731 21.623C26.0731 21.623 25.9857 21.9878 26.0143 22.2478C26.0171 22.2742 26.0279 22.299 26.0453 22.3191C26.0628 22.3391 26.0859 22.3532 26.1116 22.3597C26.5415 22.4665 28.5907 22.9214 29.9999 22.2806C30.0203 22.2713 30.0379 22.2568 30.0511 22.2386C30.0642 22.2204 30.0724 22.1991 30.0748 22.1767C30.092 22.0169 30.0308 21.6872 30.0064 21.623C29.9539 21.4848 26.26 21.7271 26.26 21.7271Z" fill="black"/>
<path d="M28.0398 22.0663C29.1259 22.0663 30.0064 21.8679 30.0064 21.623C30.0064 21.3782 29.1259 21.1797 28.0398 21.1797C26.9536 21.1797 26.0731 21.3782 26.0731 21.623C26.0731 21.8679 26.9536 22.0663 28.0398 22.0663Z" fill="#FBD56F"/>
<path d="M26.9242 20.8674L26.7373 20.7634C26.7373 20.7634 26.6499 21.1282 26.6785 21.3881C26.6813 21.4145 26.6921 21.4394 26.7095 21.4594C26.7269 21.4794 26.7501 21.4936 26.7758 21.5C27.2057 21.6068 29.2549 22.0617 30.664 21.421C30.6845 21.4116 30.7021 21.3972 30.7153 21.3789C30.7284 21.3607 30.7365 21.3394 30.7389 21.3171C30.7562 21.1573 30.695 20.8276 30.6706 20.7634C30.618 20.6251 26.9242 20.8674 26.9242 20.8674Z" fill="#FBD56F"/>
<path opacity="0.1" d="M26.9242 20.8674L26.7373 20.7634C26.7373 20.7634 26.6499 21.1282 26.6785 21.3881C26.6813 21.4145 26.6921 21.4394 26.7095 21.4594C26.7269 21.4794 26.7501 21.4936 26.7758 21.5C27.2057 21.6068 29.2549 22.0617 30.664 21.421C30.6845 21.4116 30.7021 21.3972 30.7153 21.3789C30.7284 21.3607 30.7365 21.3394 30.7389 21.3171C30.7562 21.1573 30.695 20.8276 30.6706 20.7634C30.618 20.6251 26.9242 20.8674 26.9242 20.8674Z" fill="black"/>
<path d="M28.704 21.2067C29.7901 21.2067 30.6706 21.0083 30.6706 20.7634C30.6706 20.5186 29.7901 20.3201 28.704 20.3201C27.6178 20.3201 26.7373 20.5186 26.7373 20.7634C26.7373 21.0083 27.6178 21.2067 28.704 21.2067Z" fill="#FBD56F"/>
<path d="M26.1886 19.9726L26.0017 19.8685C26.0017 19.8685 25.9143 20.2333 25.9429 20.4932C25.9457 20.5196 25.9565 20.5445 25.9739 20.5645C25.9913 20.5845 26.0145 20.5987 26.0402 20.6051C26.4701 20.7119 28.5193 21.1668 29.9285 20.5261C29.9489 20.5167 29.9665 20.5023 29.9797 20.484C29.9928 20.4658 30.001 20.4445 30.0033 20.4222C30.0206 20.2624 29.9594 19.9327 29.935 19.8685C29.8825 19.7303 26.1886 19.9726 26.1886 19.9726Z" fill="#FBD56F"/>
<path opacity="0.1" d="M26.1886 19.9726L26.0017 19.8685C26.0017 19.8685 25.9143 20.2333 25.9429 20.4932C25.9457 20.5196 25.9565 20.5445 25.9739 20.5645C25.9913 20.5845 26.0145 20.5987 26.0402 20.6051C26.4701 20.7119 28.5193 21.1668 29.9285 20.5261C29.9489 20.5167 29.9665 20.5023 29.9797 20.484C29.9928 20.4658 30.001 20.4445 30.0033 20.4222C30.0206 20.2624 29.9594 19.9327 29.935 19.8685C29.8825 19.7303 26.1886 19.9726 26.1886 19.9726Z" fill="black"/>
<path d="M27.9683 20.3118C29.0545 20.3118 29.935 20.1133 29.935 19.8685C29.935 19.6236 29.0545 19.4252 27.9683 19.4252C26.8822 19.4252 26.0017 19.6236 26.0017 19.8685C26.0017 20.1133 26.8822 20.3118 27.9683 20.3118Z" fill="#FBD56F"/>
<path d="M27.8435 19.2544L27.6566 19.1503C27.6566 19.1503 27.5692 19.5151 27.5978 19.7751C27.6006 19.8014 27.6114 19.8263 27.6288 19.8463C27.6462 19.8663 27.6694 19.8805 27.6951 19.8869C28.125 19.9937 30.1742 20.4486 31.5834 19.8079C31.6038 19.7986 31.6214 19.7841 31.6346 19.7659C31.6477 19.7476 31.6559 19.7263 31.6582 19.704C31.6755 19.5442 31.6143 19.2145 31.5899 19.1503C31.5374 19.0121 27.8435 19.2544 27.8435 19.2544Z" fill="#FBD56F"/>
<path opacity="0.1" d="M27.8435 19.2544L27.6566 19.1503C27.6566 19.1503 27.5692 19.5151 27.5978 19.7751C27.6006 19.8014 27.6114 19.8263 27.6288 19.8463C27.6462 19.8663 27.6694 19.8805 27.6951 19.8869C28.125 19.9937 30.1742 20.4486 31.5834 19.8079C31.6038 19.7986 31.6214 19.7841 31.6346 19.7659C31.6477 19.7476 31.6559 19.7263 31.6582 19.704C31.6755 19.5442 31.6143 19.2145 31.5899 19.1503C31.5374 19.0121 27.8435 19.2544 27.8435 19.2544Z" fill="black"/>
<path d="M29.6233 19.5936C30.7094 19.5936 31.5899 19.3951 31.5899 19.1503C31.5899 18.9055 30.7094 18.707 29.6233 18.707C28.5371 18.707 27.6566 18.9055 27.6566 19.1503C27.6566 19.3951 28.5371 19.5936 29.6233 19.5936Z" fill="#FBD56F"/>
<path d="M26.7254 18.7718L26.5385 18.6677C26.5385 18.6677 26.451 19.0325 26.4796 19.2925C26.4824 19.3188 26.4933 19.3437 26.5107 19.3637C26.5281 19.3837 26.5512 19.3979 26.5769 19.4043C27.0069 19.5111 29.0561 19.966 30.4652 19.3253C30.4856 19.316 30.5033 19.3015 30.5164 19.2833C30.5296 19.265 30.5377 19.2437 30.5401 19.2214C30.5574 19.0616 30.4962 18.7319 30.4718 18.6677C30.4192 18.5295 26.7254 18.7718 26.7254 18.7718Z" fill="#FBD56F"/>
<path opacity="0.1" d="M26.7254 18.7718L26.5385 18.6677C26.5385 18.6677 26.451 19.0325 26.4796 19.2925C26.4824 19.3188 26.4933 19.3437 26.5107 19.3637C26.5281 19.3837 26.5512 19.3979 26.5769 19.4043C27.0069 19.5111 29.0561 19.966 30.4652 19.3253C30.4856 19.316 30.5033 19.3015 30.5164 19.2833C30.5296 19.265 30.5377 19.2437 30.5401 19.2214C30.5574 19.0616 30.4962 18.7319 30.4718 18.6677C30.4192 18.5295 26.7254 18.7718 26.7254 18.7718Z" fill="black"/>
<path d="M28.5051 19.1109C29.5913 19.1109 30.4718 18.9125 30.4718 18.6676C30.4718 18.4228 29.5913 18.2243 28.5051 18.2243C27.419 18.2243 26.5385 18.4228 26.5385 18.6676C26.5385 18.9125 27.419 19.1109 28.5051 19.1109Z" fill="#FBD56F"/>
<path d="M27.4719 17.8399L27.285 17.7358C27.285 17.7358 27.1976 18.1006 27.2262 18.3606C27.229 18.387 27.2399 18.4118 27.2573 18.4318C27.2747 18.4518 27.2978 18.466 27.3235 18.4725C27.7535 18.5792 29.8026 19.0341 31.2118 18.3934C31.2322 18.3841 31.2499 18.3696 31.263 18.3514C31.2761 18.3332 31.2843 18.3118 31.2867 18.2895C31.3039 18.1297 31.2428 17.8001 31.2183 17.7358C31.1658 17.5976 27.4719 17.8399 27.4719 17.8399Z" fill="#FBD56F"/>
<path opacity="0.1" d="M27.4719 17.8399L27.285 17.7358C27.285 17.7358 27.1976 18.1006 27.2262 18.3606C27.229 18.387 27.2399 18.4118 27.2573 18.4318C27.2747 18.4518 27.2978 18.466 27.3235 18.4725C27.7535 18.5792 29.8026 19.0341 31.2118 18.3934C31.2322 18.3841 31.2499 18.3696 31.263 18.3514C31.2761 18.3332 31.2843 18.3118 31.2867 18.2895C31.3039 18.1297 31.2428 17.8001 31.2183 17.7358C31.1658 17.5976 27.4719 17.8399 27.4719 17.8399Z" fill="black"/>
<path d="M29.2517 18.1791C30.3378 18.1791 31.2183 17.9806 31.2183 17.7358C31.2183 17.491 30.3378 17.2925 29.2517 17.2925C28.1655 17.2925 27.285 17.491 27.285 17.7358C27.285 17.9806 28.1655 18.1791 29.2517 18.1791Z" fill="#FBD56F"/>
<path d="M27.8401 16.7338L27.6532 16.6297C27.6532 16.6297 27.5658 16.9945 27.5944 17.2545C27.5972 17.2809 27.608 17.3057 27.6254 17.3257C27.6428 17.3457 27.666 17.3599 27.6917 17.3664C28.1216 17.4731 30.1708 17.9281 31.5799 17.2873C31.6003 17.278 31.618 17.2635 31.6311 17.2453C31.6443 17.2271 31.6524 17.2057 31.6548 17.1834C31.6721 17.0236 31.6109 16.6939 31.5865 16.6297C31.5339 16.4915 27.8401 16.7338 27.8401 16.7338Z" fill="#FBD56F"/>
<path opacity="0.1" d="M27.8401 16.7338L27.6532 16.6297C27.6532 16.6297 27.5658 16.9945 27.5944 17.2545C27.5972 17.2809 27.608 17.3057 27.6254 17.3257C27.6428 17.3457 27.666 17.3599 27.6917 17.3664C28.1216 17.4731 30.1708 17.9281 31.5799 17.2873C31.6003 17.278 31.618 17.2635 31.6311 17.2453C31.6443 17.2271 31.6524 17.2057 31.6548 17.1834C31.6721 17.0236 31.6109 16.6939 31.5865 16.6297C31.5339 16.4915 27.8401 16.7338 27.8401 16.7338Z" fill="black"/>
<path d="M29.6198 17.0731C30.706 17.0731 31.5865 16.8746 31.5865 16.6298C31.5865 16.3849 30.706 16.1865 29.6198 16.1865C28.5337 16.1865 27.6532 16.3849 27.6532 16.6298C27.6532 16.8746 28.5337 17.0731 29.6198 17.0731Z" fill="#FBD56F"/>
<path d="M31.16 22.6377L30.9732 22.5336C30.9732 22.5336 30.8857 22.8984 30.9143 23.1584C30.9171 23.1847 30.928 23.2096 30.9454 23.2296C30.9628 23.2496 30.9859 23.2638 31.0116 23.2702C31.4416 23.377 33.4907 23.8319 34.8999 23.1912C34.9203 23.1819 34.938 23.1674 34.9511 23.1492C34.9642 23.1309 34.9724 23.1096 34.9748 23.0873C34.992 22.9275 34.9309 22.5978 34.9064 22.5336C34.8539 22.3954 31.16 22.6377 31.16 22.6377Z" fill="#FBD56F"/>
<path opacity="0.1" d="M31.16 22.6377L30.9732 22.5336C30.9732 22.5336 30.8857 22.8984 30.9143 23.1584C30.9171 23.1847 30.928 23.2096 30.9454 23.2296C30.9628 23.2496 30.9859 23.2638 31.0116 23.2702C31.4416 23.377 33.4907 23.8319 34.8999 23.1912C34.9203 23.1819 34.938 23.1674 34.9511 23.1492C34.9642 23.1309 34.9724 23.1096 34.9748 23.0873C34.992 22.9275 34.9309 22.5978 34.9064 22.5336C34.8539 22.3954 31.16 22.6377 31.16 22.6377Z" fill="black"/>
<path d="M32.9398 22.9769C34.0259 22.9769 34.9064 22.7784 34.9064 22.5336C34.9064 22.2888 34.0259 22.0903 32.9398 22.0903C31.8536 22.0903 30.9731 22.2888 30.9731 22.5336C30.9731 22.7784 31.8536 22.9769 32.9398 22.9769Z" fill="#FBD56F"/>
<path d="M31.8242 21.778L31.6373 21.6739C31.6373 21.6739 31.5499 22.0388 31.5785 22.2987C31.5813 22.3251 31.5922 22.35 31.6096 22.37C31.627 22.39 31.6501 22.4042 31.6758 22.4106C32.1058 22.5174 34.1549 22.9723 35.5641 22.3315C35.5845 22.3222 35.6021 22.3077 35.6153 22.2895C35.6284 22.2713 35.6366 22.25 35.639 22.2276C35.6562 22.0679 35.5951 21.7382 35.5706 21.6739C35.5181 21.5357 31.8242 21.778 31.8242 21.778Z" fill="#FBD56F"/>
<path opacity="0.1" d="M31.8242 21.778L31.6373 21.6739C31.6373 21.6739 31.5499 22.0388 31.5785 22.2987C31.5813 22.3251 31.5922 22.35 31.6096 22.37C31.627 22.39 31.6501 22.4042 31.6758 22.4106C32.1058 22.5174 34.1549 22.9723 35.5641 22.3315C35.5845 22.3222 35.6021 22.3077 35.6153 22.2895C35.6284 22.2713 35.6366 22.25 35.639 22.2276C35.6562 22.0679 35.5951 21.7382 35.5706 21.6739C35.5181 21.5357 31.8242 21.778 31.8242 21.778Z" fill="black"/>
<path d="M33.604 22.1172C34.6901 22.1172 35.5706 21.9188 35.5706 21.674C35.5706 21.4292 34.6901 21.2307 33.604 21.2307C32.5178 21.2307 31.6373 21.4292 31.6373 21.674C31.6373 21.9188 32.5178 22.1172 33.604 22.1172Z" fill="#FBD56F"/>
<path d="M31.0886 20.8831L30.9017 20.7791C30.9017 20.7791 30.8143 21.1439 30.8429 21.4039C30.8457 21.4302 30.8566 21.4551 30.874 21.4751C30.8914 21.4951 30.9145 21.5093 30.9402 21.5157C31.3702 21.6225 33.4193 22.0774 34.8285 21.4367C34.8489 21.4274 34.8665 21.4129 34.8797 21.3946C34.8928 21.3764 34.901 21.3551 34.9034 21.3328C34.9206 21.173 34.8594 20.8433 34.835 20.7791C34.7825 20.6408 31.0886 20.8831 31.0886 20.8831Z" fill="#FBD56F"/>
<path opacity="0.1" d="M31.0886 20.8831L30.9017 20.7791C30.9017 20.7791 30.8143 21.1439 30.8429 21.4039C30.8457 21.4302 30.8566 21.4551 30.874 21.4751C30.8914 21.4951 30.9145 21.5093 30.9402 21.5157C31.3702 21.6225 33.4193 22.0774 34.8285 21.4367C34.8489 21.4274 34.8665 21.4129 34.8797 21.3946C34.8928 21.3764 34.901 21.3551 34.9034 21.3328C34.9206 21.173 34.8594 20.8433 34.835 20.7791C34.7825 20.6408 31.0886 20.8831 31.0886 20.8831Z" fill="black"/>
<path d="M32.8684 21.2224C33.9545 21.2224 34.835 21.0239 34.835 20.7791C34.835 20.5343 33.9545 20.3358 32.8684 20.3358C31.7822 20.3358 30.9017 20.5343 30.9017 20.7791C30.9017 21.0239 31.7822 21.2224 32.8684 21.2224Z" fill="#FBD56F"/>
<path d="M32.7434 20.165L32.5565 20.0609C32.5565 20.0609 32.4691 20.4257 32.4977 20.6857C32.5005 20.7121 32.5113 20.737 32.5287 20.757C32.5461 20.777 32.5693 20.7912 32.595 20.7976C33.0249 20.9044 35.0741 21.3593 36.4833 20.7185C36.5037 20.7092 36.5213 20.6947 36.5345 20.6765C36.5476 20.6583 36.5558 20.637 36.5581 20.6146C36.5754 20.4549 36.5142 20.1252 36.4898 20.0609C36.4373 19.9227 32.7434 20.165 32.7434 20.165Z" fill="#FBD56F"/>
<path opacity="0.1" d="M32.7434 20.165L32.5565 20.0609C32.5565 20.0609 32.4691 20.4257 32.4977 20.6857C32.5005 20.7121 32.5113 20.737 32.5287 20.757C32.5461 20.777 32.5693 20.7912 32.595 20.7976C33.0249 20.9044 35.0741 21.3593 36.4833 20.7185C36.5037 20.7092 36.5213 20.6947 36.5345 20.6765C36.5476 20.6583 36.5558 20.637 36.5581 20.6146C36.5754 20.4549 36.5142 20.1252 36.4898 20.0609C36.4373 19.9227 32.7434 20.165 32.7434 20.165Z" fill="black"/>
<path d="M34.5232 20.5043C35.6093 20.5043 36.4898 20.3058 36.4898 20.0609C36.4898 19.8161 35.6093 19.6176 34.5232 19.6176C33.437 19.6176 32.5565 19.8161 32.5565 20.0609C32.5565 20.3058 33.437 20.5043 34.5232 20.5043Z" fill="#FBD56F"/>
<path d="M31.6254 19.6823L31.4385 19.5782C31.4385 19.5782 31.3511 19.943 31.3796 20.203C31.3825 20.2294 31.3933 20.2543 31.4107 20.2743C31.4281 20.2943 31.4512 20.3085 31.477 20.3149C31.9069 20.4217 33.9561 20.8766 35.3652 20.2358C35.3857 20.2265 35.4033 20.212 35.4164 20.1938C35.4296 20.1756 35.4377 20.1543 35.4401 20.1319C35.4574 19.9722 35.3962 19.6425 35.3718 19.5782C35.3192 19.44 31.6254 19.6823 31.6254 19.6823Z" fill="#FBD56F"/>
<path opacity="0.1" d="M31.6254 19.6823L31.4385 19.5782C31.4385 19.5782 31.3511 19.943 31.3796 20.203C31.3825 20.2294 31.3933 20.2543 31.4107 20.2743C31.4281 20.2943 31.4512 20.3085 31.477 20.3149C31.9069 20.4217 33.9561 20.8766 35.3652 20.2358C35.3857 20.2265 35.4033 20.212 35.4164 20.1938C35.4296 20.1756 35.4377 20.1543 35.4401 20.1319C35.4574 19.9722 35.3962 19.6425 35.3718 19.5782C35.3192 19.44 31.6254 19.6823 31.6254 19.6823Z" fill="black"/>
<path d="M33.4051 20.0216C34.4913 20.0216 35.3717 19.8231 35.3717 19.5782C35.3717 19.3334 34.4913 19.1349 33.4051 19.1349C32.319 19.1349 31.4385 19.3334 31.4385 19.5782C31.4385 19.8231 32.319 20.0216 33.4051 20.0216Z" fill="#FBD56F"/>
<path d="M32.3718 18.7505L32.1849 18.6464C32.1849 18.6464 32.0975 19.0112 32.1261 19.2711C32.1289 19.2975 32.1398 19.3224 32.1572 19.3424C32.1746 19.3624 32.1977 19.3766 32.2234 19.383C32.6534 19.4898 34.7025 19.9446 36.1116 19.304C36.1321 19.2946 36.1497 19.2802 36.1629 19.2619C36.176 19.2437 36.1842 19.2224 36.1865 19.2001C36.2038 19.0403 36.1426 18.7106 36.1182 18.6464C36.0657 18.5082 32.3718 18.7505 32.3718 18.7505Z" fill="#FBD56F"/>
<path opacity="0.1" d="M32.3718 18.7505L32.1849 18.6464C32.1849 18.6464 32.0975 19.0112 32.1261 19.2711C32.1289 19.2975 32.1398 19.3224 32.1572 19.3424C32.1746 19.3624 32.1977 19.3766 32.2234 19.383C32.6534 19.4898 34.7025 19.9446 36.1116 19.304C36.1321 19.2946 36.1497 19.2802 36.1629 19.2619C36.176 19.2437 36.1842 19.2224 36.1865 19.2001C36.2038 19.0403 36.1426 18.7106 36.1182 18.6464C36.0657 18.5082 32.3718 18.7505 32.3718 18.7505Z" fill="black"/>
<path d="M34.1516 19.0897C35.2377 19.0897 36.1183 18.8912 36.1183 18.6464C36.1183 18.4015 35.2377 18.2031 34.1516 18.2031C33.0654 18.2031 32.1849 18.4015 32.1849 18.6464C32.1849 18.8912 33.0654 19.0897 34.1516 19.0897Z" fill="#FBD56F"/>
<path d="M32.7401 17.6443L32.5532 17.5403C32.5532 17.5403 32.4658 17.9051 32.4944 18.1651C32.4972 18.1914 32.508 18.2163 32.5255 18.2363C32.5429 18.2563 32.566 18.2705 32.5917 18.2769C33.0217 18.3837 35.0708 18.8386 36.48 18.1979C36.5004 18.1886 36.518 18.1741 36.5312 18.1559C36.5443 18.1376 36.5525 18.1163 36.5548 18.094C36.5721 17.9342 36.5109 17.6045 36.4865 17.5403C36.434 17.402 32.7401 17.6443 32.7401 17.6443Z" fill="#FBD56F"/>
<path opacity="0.1" d="M32.7401 17.6443L32.5532 17.5403C32.5532 17.5403 32.4658 17.9051 32.4944 18.1651C32.4972 18.1914 32.508 18.2163 32.5255 18.2363C32.5429 18.2563 32.566 18.2705 32.5917 18.2769C33.0217 18.3837 35.0708 18.8386 36.48 18.1979C36.5004 18.1886 36.518 18.1741 36.5312 18.1559C36.5443 18.1376 36.5525 18.1163 36.5548 18.094C36.5721 17.9342 36.5109 17.6045 36.4865 17.5403C36.434 17.402 32.7401 17.6443 32.7401 17.6443Z" fill="black"/>
<path d="M34.5199 17.9837C35.606 17.9837 36.4865 17.7852 36.4865 17.5403C36.4865 17.2955 35.606 17.097 34.5199 17.097C33.4337 17.097 32.5532 17.2955 32.5532 17.5403C32.5532 17.7852 33.4337 17.9837 34.5199 17.9837Z" fill="#FBD56F"/>
<path opacity="0.1" d="M37.1962 17.9462C37.1962 17.9462 36.3846 18.2907 36.2738 18.3768C36.163 18.4629 37.1962 17.9462 37.1962 17.9462Z" fill="black"/>
<path d="M28.5524 25.277C29.5447 25.277 30.3491 24.4231 30.3491 23.3699C30.3491 22.3166 29.5447 21.4627 28.5524 21.4627C27.56 21.4627 26.7556 22.3166 26.7556 23.3699C26.7556 24.4231 27.56 25.277 28.5524 25.277Z" fill="#FBD56F"/>
<path opacity="0.1" d="M28.5524 25.277C29.5447 25.277 30.3491 24.4231 30.3491 23.3699C30.3491 22.3166 29.5447 21.4627 28.5524 21.4627C27.56 21.4627 26.7556 22.3166 26.7556 23.3699C26.7556 24.4231 27.56 25.277 28.5524 25.277Z" fill="black"/>
<path d="M28.8624 25.277C29.8547 25.277 30.6592 24.4422 30.6592 23.4123C30.6592 22.3825 29.8547 21.5476 28.8624 21.5476C27.8701 21.5476 27.0657 22.3825 27.0657 23.4123C27.0657 24.4422 27.8701 25.277 28.8624 25.277Z" fill="#FBD56F"/>
<path d="M2.82679 24.4179C4.05237 24.4179 5.04591 24.25 5.04591 24.0428C5.04591 23.8356 4.05237 23.6676 2.82679 23.6676C1.6012 23.6676 0.607666 23.8356 0.607666 24.0428C0.607666 24.25 1.6012 24.4179 2.82679 24.4179Z" fill="white"/>
<path d="M3.74428 23.429C3.83932 23.3407 3.92847 23.2366 3.95585 23.1097C3.98324 22.9829 3.92919 22.8309 3.80802 22.7845C3.67224 22.7326 3.52715 22.8267 3.41714 22.9218C3.30714 23.0168 3.18107 23.1253 3.0371 23.1051C3.11115 23.038 3.16656 22.9529 3.19792 22.858C3.22928 22.7631 3.23552 22.6617 3.21603 22.5636C3.20971 22.5231 3.19251 22.4851 3.16627 22.4537C3.0909 22.3731 2.95426 22.4077 2.86401 22.4712C2.57701 22.673 2.49692 23.0629 2.49536 23.4138C2.46642 23.2872 2.4908 23.1553 2.49008 23.0255C2.48937 22.8957 2.45379 22.7517 2.34426 22.682C2.27604 22.6453 2.19931 22.6272 2.12186 22.6297C1.99285 22.625 1.84916 22.6379 1.76106 22.7323C1.65159 22.8495 1.67998 23.0462 1.77522 23.1753C1.87045 23.3044 2.01532 23.3853 2.14866 23.4744C2.25562 23.5381 2.34684 23.6251 2.41553 23.729C2.42361 23.7435 2.43024 23.7587 2.43532 23.7745H3.24411C3.42567 23.6824 3.59392 23.5662 3.74428 23.429Z" fill="white"/>
<path d="M22.8949 21.5966C22.9938 21.7319 23.0746 21.8796 23.1354 22.0358C23.1515 22.0762 23.1672 22.1186 23.1821 22.1631C23.4212 22.8776 23.0424 23.7345 22.9341 23.642C22.8258 23.5496 22.4883 23.3781 22.423 23.6191C22.3578 23.8601 22.1167 24.1064 22.1167 24.1064C21.6775 24.5481 21.28 24.0708 21.019 23.5777C20.9338 23.415 20.858 23.2475 20.792 23.0761C20.7341 22.9246 20.7008 22.82 20.7008 22.82L22.5301 21.2614C22.5301 21.2614 22.7069 21.3426 22.8949 21.5966Z" fill="white"/>
<path d="M20.0119 22.5932C20.1107 22.7285 20.1916 22.8762 20.2524 23.0324C20.2684 23.0728 20.2842 23.1152 20.2991 23.1597C20.5381 23.8742 20.1593 24.731 20.051 24.6386C19.9427 24.5462 19.6052 24.3747 19.54 24.6157C19.4747 24.8567 19.2336 25.103 19.2336 25.103C18.7945 25.5447 18.3969 25.0674 18.136 24.5743C18.0507 24.4116 17.9749 24.2441 17.909 24.0727C17.851 23.9212 17.8177 23.8166 17.8177 23.8166L19.647 22.258C19.647 22.258 19.8239 22.3392 20.0119 22.5932Z" fill="white"/>
<path d="M14.2229 23.97C14.2126 24.1373 14.1806 24.3025 14.1278 24.4616C14.1144 24.503 14.0994 24.5457 14.0824 24.5894C13.8105 25.2921 12.9721 25.71 12.9477 25.5697C12.9233 25.4295 12.7729 25.0821 12.5689 25.2259C12.3648 25.3698 12.0221 25.4056 12.0221 25.4056C11.402 25.4654 11.4006 24.8442 11.5144 24.298C11.5526 24.1184 11.6011 23.941 11.6597 23.767C11.7118 23.6134 11.753 23.5116 11.753 23.5116L14.1559 23.4791C14.1559 23.4791 14.2403 23.6544 14.2229 23.97Z" fill="white"/>
<path d="M11.1182 23.187C11.1079 23.3543 11.0759 23.5195 11.0231 23.6786C11.0097 23.7199 10.9947 23.7626 10.9777 23.8064C10.7058 24.5091 9.86734 24.9269 9.84294 24.7867C9.81854 24.6464 9.66815 24.299 9.46413 24.4429C9.2601 24.5868 8.91733 24.6225 8.91733 24.6225C8.2973 24.6823 8.29583 24.0612 8.40965 23.515C8.44785 23.3353 8.49638 23.158 8.555 22.984C8.60704 22.8304 8.64822 22.7286 8.64822 22.7286L11.0512 22.6961C11.0512 22.6961 11.1355 22.8714 11.1182 23.187Z" fill="white"/>
<path opacity="0.2" d="M22.8949 21.5966C22.9938 21.7319 23.0746 21.8796 23.1354 22.0358C23.1515 22.0762 23.1672 22.1186 23.1821 22.1631C23.4212 22.8776 23.0424 23.7345 22.9341 23.642C22.8258 23.5496 22.4883 23.3781 22.423 23.6191C22.3578 23.8601 22.1167 24.1064 22.1167 24.1064C21.6775 24.5481 21.28 24.0708 21.019 23.5777C20.9338 23.415 20.858 23.2475 20.792 23.0761C20.7341 22.9246 20.7008 22.82 20.7008 22.82L22.5301 21.2614C22.5301 21.2614 22.7069 21.3426 22.8949 21.5966Z" fill="black"/>
<path opacity="0.2" d="M20.0119 22.5932C20.1107 22.7285 20.1916 22.8762 20.2524 23.0324C20.2684 23.0728 20.2842 23.1152 20.2991 23.1597C20.5381 23.8742 20.1593 24.731 20.051 24.6386C19.9427 24.5462 19.6052 24.3747 19.54 24.6157C19.4747 24.8567 19.2336 25.103 19.2336 25.103C18.7945 25.5447 18.3969 25.0674 18.136 24.5743C18.0507 24.4116 17.9749 24.2441 17.909 24.0727C17.851 23.9212 17.8177 23.8166 17.8177 23.8166L19.647 22.258C19.647 22.258 19.8239 22.3392 20.0119 22.5932Z" fill="black"/>
<path opacity="0.2" d="M14.2229 23.97C14.2126 24.1373 14.1806 24.3025 14.1278 24.4616C14.1144 24.503 14.0994 24.5457 14.0824 24.5894C13.8105 25.2921 12.9721 25.71 12.9477 25.5697C12.9233 25.4295 12.7729 25.0821 12.5689 25.2259C12.3648 25.3698 12.0221 25.4056 12.0221 25.4056C11.402 25.4654 11.4006 24.8442 11.5144 24.298C11.5526 24.1184 11.6011 23.941 11.6597 23.767C11.7118 23.6134 11.753 23.5116 11.753 23.5116L14.1559 23.4791C14.1559 23.4791 14.2403 23.6544 14.2229 23.97Z" fill="black"/>
<path opacity="0.2" d="M11.1182 23.187C11.1079 23.3543 11.0759 23.5195 11.0231 23.6786C11.0097 23.7199 10.9947 23.7626 10.9777 23.8064C10.7058 24.5091 9.86734 24.9269 9.84294 24.7867C9.81854 24.6464 9.66815 24.299 9.46413 24.4429C9.2601 24.5868 8.91733 24.6225 8.91733 24.6225C8.2973 24.6823 8.29583 24.0612 8.40965 23.515C8.44785 23.3353 8.49638 23.158 8.555 22.984C8.60704 22.8304 8.64822 22.7286 8.64822 22.7286L11.0512 22.6961C11.0512 22.6961 11.1355 22.8714 11.1182 23.187Z" fill="black"/>
<path d="M27.7743 12.6556C27.7743 19.0739 25.6031 24.2769 15.5836 24.2769C8.85086 24.2769 3.64204 22.604 3.39289 12.6556C3.23219 6.2394 8.85086 1.03437 15.5836 1.03437C22.3163 1.03437 27.7743 6.23739 27.7743 12.6556Z" fill="#424242"/>
<path opacity="0.2" d="M13.2968 1.23726H13.3041C13.3024 1.23824 13.3005 1.23886 13.2986 1.23908L13.2968 1.23726Z" fill="black"/>
<path opacity="0.2" d="M13.3206 1.23334C13.3515 1.22836 13.4127 1.21983 13.5017 1.21307L13.3035 1.23654C13.3063 1.23583 13.3099 1.23512 13.3141 1.23441C13.3163 1.23405 13.3181 1.2337 13.3206 1.23334Z" fill="black"/>
<path opacity="0.2" d="M22.3285 5.98188L21.4387 6.30222C20.9851 5.6939 20.497 5.11206 19.9769 4.55956C19.4092 3.95404 18.7898 3.39917 18.1257 2.90126C15.8474 1.2127 14.0851 1.16963 13.5032 1.21305L14.8408 1.05573C16.105 1.27325 17.3207 1.71273 18.4318 2.35383C19.2091 2.80192 19.9331 3.33675 20.5898 3.94806C21.7544 5.02904 22.3285 5.98188 22.3285 5.98188Z" fill="black"/>
<path opacity="0.2" d="M14.2844 6.58694C14.2844 6.58694 13.1098 2.67167 14.1064 1.60386C14.1064 1.60386 15.6725 1.06996 16.8471 4.0954L14.2844 6.58694Z" fill="black"/>
<path d="M20.2321 2.93008C20.2321 2.93008 23.3469 0.283108 24.7249 0.767472C24.7249 0.767472 25.8424 1.98771 23.5426 4.27761L20.2321 2.93008Z" fill="white"/>
<path opacity="0.2" d="M20.2321 2.93008C20.2321 2.93008 23.3469 0.283108 24.7249 0.767472C24.7249 0.767472 25.8424 1.98771 23.5426 4.27761L20.2321 2.93008Z" fill="black"/>
<path d="M29.9455 15.6098C29.9455 19.0598 27.4698 21.7853 25.1404 21.7853C22.811 21.7853 21.5099 19.0598 21.5099 15.6098C21.5099 12.1599 23.4022 9.49804 25.7277 9.36323C29.4116 9.14967 29.9455 12.1599 29.9455 15.6098Z" fill="white"/>
<path opacity="0.2" d="M29.9455 15.6098C29.9455 19.0598 27.4698 21.7853 25.1404 21.7853C22.811 21.7853 21.5099 19.0598 21.5099 15.6098C21.5099 12.1599 23.4022 9.49804 25.7277 9.36323C29.4116 9.14967 29.9455 12.1599 29.9455 15.6098Z" fill="#4F4F4F"/>
<path d="M24.998 17.1226C25.4305 17.1226 25.7811 16.6764 25.7811 16.126C25.7811 15.5755 25.4305 15.1294 24.998 15.1294C24.5656 15.1294 24.215 15.5755 24.215 16.126C24.215 16.6764 24.5656 17.1226 24.998 17.1226Z" fill="white"/>
<path d="M27.7744 16.2683C28.2069 16.2683 28.5575 15.8221 28.5575 15.2717C28.5575 14.7213 28.2069 14.2751 27.7744 14.2751C27.3419 14.2751 26.9913 14.7213 26.9913 15.2717C26.9913 15.8221 27.3419 16.2683 27.7744 16.2683Z" fill="white"/>
<path d="M20.7418 3.30523C20.7424 3.52847 20.6903 3.74868 20.5899 3.94804C20.4573 4.21294 20.2421 4.42756 19.9769 4.55953C19.4092 3.95402 18.7898 3.39916 18.1257 2.90125C18.1849 2.69791 18.2896 2.5107 18.4318 2.35383C18.5545 2.21709 18.7045 2.10763 18.8721 2.03252C19.0397 1.95741 19.2213 1.91833 19.405 1.91781C20.1432 1.91781 20.7418 2.53891 20.7418 3.30523Z" fill="#FAD46F"/>
</g>
<defs>
<clipPath id="clip0">
<rect width="37.8857" height="26" fill="white"/>
</clipPath>
</defs>
</svg>
