<svg width="51" height="35" viewBox="0 0 51 35" fill="none" xmlns="http://www.w3.org/2000/svg">
<path d="M32.9415 30.3639C34.2773 30.3639 35.3601 29.2144 35.3601 27.7965C35.3601 26.3786 34.2773 25.2291 32.9415 25.2291C31.6056 25.2291 30.5228 26.3786 30.5228 27.7965C30.5228 29.2144 31.6056 30.3639 32.9415 30.3639Z" fill="#FBD56F"/>
<path opacity="0.1" d="M32.9415 30.3639C34.2773 30.3639 35.3601 29.2144 35.3601 27.7965C35.3601 26.3786 34.2773 25.2291 32.9415 25.2291C31.6056 25.2291 30.5228 26.3786 30.5228 27.7965C30.5228 29.2144 31.6056 30.3639 32.9415 30.3639Z" fill="black"/>
<path d="M33.3589 30.3638C34.6947 30.3638 35.7776 29.24 35.7776 27.8536C35.7776 26.4673 34.6947 25.3434 33.3589 25.3434C32.0231 25.3434 30.9402 26.4673 30.9402 27.8536C30.9402 29.24 32.0231 30.3638 33.3589 30.3638Z" fill="#FBD56F"/>
<path d="M34.3385 30.1284L34.0869 29.9883C34.0869 29.9883 33.9693 30.4793 34.0077 30.8293C34.0115 30.8648 34.0261 30.8982 34.0495 30.9252C34.073 30.9521 34.1041 30.9712 34.1387 30.9799C34.7175 31.1236 37.476 31.7359 39.3729 30.8735C39.4004 30.8609 39.4242 30.8414 39.4419 30.8169C39.4595 30.7924 39.4705 30.7636 39.4737 30.7336C39.497 30.5185 39.4146 30.0747 39.3818 29.9883C39.311 29.8022 34.3385 30.1284 34.3385 30.1284Z" fill="#FBD56F"/>
<path opacity="0.1" d="M34.3385 30.1284L34.0869 29.9883C34.0869 29.9883 33.9693 30.4793 34.0077 30.8293C34.0115 30.8648 34.0261 30.8982 34.0495 30.9252C34.073 30.9521 34.1041 30.9712 34.1387 30.9799C34.7175 31.1236 37.476 31.7359 39.3729 30.8735C39.4004 30.8609 39.4242 30.8414 39.4419 30.8169C39.4595 30.7924 39.4705 30.7636 39.4737 30.7336C39.497 30.5185 39.4146 30.0747 39.3818 29.9883C39.311 29.8022 34.3385 30.1284 34.3385 30.1284Z" fill="black"/>
<path d="M36.7344 30.5852C38.1965 30.5852 39.3818 30.318 39.3818 29.9884C39.3818 29.6588 38.1965 29.3916 36.7344 29.3916C35.2723 29.3916 34.087 29.6588 34.087 29.9884C34.087 30.318 35.2723 30.5852 36.7344 30.5852Z" fill="#FBD56F"/>
<path d="M35.35 29.248L35.0984 29.1079C35.0984 29.1079 34.9807 29.599 35.0192 29.949C35.023 29.9845 35.0376 30.018 35.061 30.0449C35.0844 30.0718 35.1156 30.0909 35.1502 30.0996C35.729 30.2433 38.4875 30.8557 40.3844 29.9932C40.4119 29.9806 40.4357 29.9611 40.4533 29.9366C40.471 29.9121 40.482 29.8834 40.4852 29.8533C40.5085 29.6382 40.4261 29.1944 40.3932 29.1079C40.3225 28.9218 35.35 29.248 35.35 29.248Z" fill="#FBD56F"/>
<path opacity="0.1" d="M35.35 29.248L35.0984 29.1079C35.0984 29.1079 34.9807 29.599 35.0192 29.949C35.023 29.9845 35.0376 30.018 35.061 30.0449C35.0844 30.0718 35.1156 30.0909 35.1502 30.0996C35.729 30.2433 38.4875 30.8557 40.3844 29.9932C40.4119 29.9806 40.4357 29.9611 40.4533 29.9366C40.471 29.9121 40.482 29.8834 40.4852 29.8533C40.5085 29.6382 40.4261 29.1944 40.3932 29.1079C40.3225 28.9218 35.35 29.248 35.35 29.248Z" fill="black"/>
<path d="M37.7458 29.7047C39.2079 29.7047 40.3932 29.4375 40.3932 29.1079C40.3932 28.7783 39.2079 28.5111 37.7458 28.5111C36.2837 28.5111 35.0984 28.7783 35.0984 29.1079C35.0984 29.4375 36.2837 29.7047 37.7458 29.7047Z" fill="#FBD56F"/>
<path d="M36.2442 28.0908L35.9926 27.9507C35.9926 27.9507 35.8749 28.4418 35.9134 28.7917C35.9172 28.8272 35.9318 28.8607 35.9552 28.8876C35.9786 28.9146 36.0097 28.9337 36.0444 28.9423C36.6231 29.0861 39.3817 29.6984 41.2786 28.8359C41.3061 28.8234 41.3298 28.8039 41.3475 28.7793C41.3652 28.7548 41.3762 28.7261 41.3794 28.696C41.4026 28.481 41.3203 28.0371 41.2874 27.9507C41.2166 27.7646 36.2442 28.0908 36.2442 28.0908Z" fill="#FBD56F"/>
<path opacity="0.1" d="M36.2442 28.0908L35.9926 27.9507C35.9926 27.9507 35.8749 28.4418 35.9134 28.7917C35.9172 28.8272 35.9318 28.8607 35.9552 28.8876C35.9786 28.9146 36.0097 28.9337 36.0444 28.9423C36.6231 29.0861 39.3817 29.6984 41.2786 28.8359C41.3061 28.8234 41.3298 28.8039 41.3475 28.7793C41.3652 28.7548 41.3762 28.7261 41.3794 28.696C41.4026 28.481 41.3203 28.0371 41.2874 27.9507C41.2166 27.7646 36.2442 28.0908 36.2442 28.0908Z" fill="black"/>
<path d="M38.64 28.5476C40.1021 28.5476 41.2874 28.2804 41.2874 27.9508C41.2874 27.6212 40.1021 27.354 38.64 27.354C37.1778 27.354 35.9926 27.6212 35.9926 27.9508C35.9926 28.2804 37.1778 28.5476 38.64 28.5476Z" fill="#FBD56F"/>
<path d="M35.2539 26.8862L35.0023 26.7461C35.0023 26.7461 34.8847 27.2371 34.9231 27.5871C34.9269 27.6226 34.9415 27.656 34.9649 27.683C34.9884 27.7099 35.0195 27.729 35.0541 27.7377C35.6329 27.8814 38.3914 28.4937 40.2883 27.6313C40.3158 27.6187 40.3396 27.5992 40.3573 27.5747C40.375 27.5502 40.3859 27.5215 40.3892 27.4914C40.4124 27.2763 40.3301 26.8325 40.2972 26.7461C40.2264 26.56 35.2539 26.8862 35.2539 26.8862Z" fill="#FBD56F"/>
<path opacity="0.1" d="M35.2539 26.8862L35.0023 26.7461C35.0023 26.7461 34.8847 27.2371 34.9231 27.5871C34.9269 27.6226 34.9415 27.656 34.9649 27.683C34.9884 27.7099 35.0195 27.729 35.0541 27.7377C35.6329 27.8814 38.3914 28.4937 40.2883 27.6313C40.3158 27.6187 40.3396 27.5992 40.3573 27.5747C40.375 27.5502 40.3859 27.5215 40.3892 27.4914C40.4124 27.2763 40.3301 26.8325 40.2972 26.7461C40.2264 26.56 35.2539 26.8862 35.2539 26.8862Z" fill="black"/>
<path d="M37.6497 27.3428C39.1119 27.3428 40.2971 27.0756 40.2971 26.746C40.2971 26.4165 39.1119 26.1493 37.6497 26.1493C36.1876 26.1493 35.0023 26.4165 35.0023 26.746C35.0023 27.0756 36.1876 27.3428 37.6497 27.3428Z" fill="#FBD56F"/>
<path d="M37.4816 25.9194L37.23 25.7793C37.23 25.7793 37.1123 26.2704 37.1508 26.6203C37.1546 26.6558 37.1692 26.6893 37.1926 26.7162C37.216 26.7431 37.2472 26.7622 37.2818 26.7709C37.8606 26.9146 40.6191 27.527 42.516 26.6645C42.5435 26.6519 42.5673 26.6324 42.5849 26.6079C42.6026 26.5834 42.6136 26.5547 42.6168 26.5246C42.6401 26.3095 42.5577 25.8658 42.5248 25.7793C42.4541 25.5932 37.4816 25.9194 37.4816 25.9194Z" fill="#FBD56F"/>
<path opacity="0.1" d="M37.4816 25.9194L37.23 25.7793C37.23 25.7793 37.1123 26.2704 37.1508 26.6203C37.1546 26.6558 37.1692 26.6893 37.1926 26.7162C37.216 26.7431 37.2472 26.7622 37.2818 26.7709C37.8606 26.9146 40.6191 27.527 42.516 26.6645C42.5435 26.6519 42.5673 26.6324 42.5849 26.6079C42.6026 26.5834 42.6136 26.5547 42.6168 26.5246C42.6401 26.3095 42.5577 25.8658 42.5248 25.7793C42.4541 25.5932 37.4816 25.9194 37.4816 25.9194Z" fill="black"/>
<path d="M39.8774 26.376C41.3395 26.376 42.5248 26.1088 42.5248 25.7792C42.5248 25.4497 41.3395 25.1825 39.8774 25.1825C38.4153 25.1825 37.23 25.4497 37.23 25.7792C37.23 26.1088 38.4153 26.376 39.8774 26.376Z" fill="#FBD56F"/>
<path d="M35.9765 25.2697L35.7249 25.1296C35.7249 25.1296 35.6072 25.6207 35.6457 25.9707C35.6495 26.0062 35.6641 26.0396 35.6875 26.0666C35.7109 26.0935 35.742 26.1126 35.7767 26.1213C36.3554 26.265 39.114 26.8774 41.0109 26.0148C41.0384 26.0023 41.0621 25.9828 41.0798 25.9583C41.0975 25.9337 41.1085 25.905 41.1117 25.875C41.1349 25.6599 41.0526 25.2161 41.0197 25.1296C40.9489 24.9435 35.9765 25.2697 35.9765 25.2697Z" fill="#FBD56F"/>
<path opacity="0.1" d="M35.9765 25.2697L35.7249 25.1296C35.7249 25.1296 35.6072 25.6207 35.6457 25.9707C35.6495 26.0062 35.6641 26.0396 35.6875 26.0666C35.7109 26.0935 35.742 26.1126 35.7767 26.1213C36.3554 26.265 39.114 26.8774 41.0109 26.0148C41.0384 26.0023 41.0621 25.9828 41.0798 25.9583C41.0975 25.9337 41.1085 25.905 41.1117 25.875C41.1349 25.6599 41.0526 25.2161 41.0197 25.1296C40.9489 24.9435 35.9765 25.2697 35.9765 25.2697Z" fill="black"/>
<path d="M38.3723 25.7263C39.8345 25.7263 41.0197 25.4591 41.0197 25.1295C41.0197 24.7999 39.8345 24.5327 38.3723 24.5327C36.9102 24.5327 35.7249 24.7999 35.7249 25.1295C35.7249 25.4591 36.9102 25.7263 38.3723 25.7263Z" fill="#FBD56F"/>
<path d="M36.9814 24.0152L36.7298 23.8751C36.7298 23.8751 36.6121 24.3662 36.6506 24.7161C36.6544 24.7516 36.669 24.7851 36.6924 24.812C36.7159 24.839 36.747 24.8581 36.7816 24.8667C37.3604 25.0105 40.1189 25.6228 42.0158 24.7603C42.0433 24.7478 42.0671 24.7283 42.0847 24.7037C42.1024 24.6792 42.1134 24.6505 42.1166 24.6204C42.1399 24.4054 42.0575 23.9616 42.0246 23.8751C41.9539 23.689 36.9814 24.0152 36.9814 24.0152Z" fill="#FBD56F"/>
<path opacity="0.1" d="M36.9814 24.0152L36.7298 23.8751C36.7298 23.8751 36.6121 24.3662 36.6506 24.7161C36.6544 24.7516 36.669 24.7851 36.6924 24.812C36.7159 24.839 36.747 24.8581 36.7816 24.8667C37.3604 25.0105 40.1189 25.6228 42.0158 24.7603C42.0433 24.7478 42.0671 24.7283 42.0847 24.7037C42.1024 24.6792 42.1134 24.6505 42.1166 24.6204C42.1399 24.4054 42.0575 23.9616 42.0246 23.8751C41.9539 23.689 36.9814 24.0152 36.9814 24.0152Z" fill="black"/>
<path d="M39.3772 24.4719C40.8393 24.4719 42.0246 24.2047 42.0246 23.8752C42.0246 23.5456 40.8393 23.2784 39.3772 23.2784C37.9151 23.2784 36.7298 23.5456 36.7298 23.8752C36.7298 24.2047 37.9151 24.4719 39.3772 24.4719Z" fill="#FBD56F"/>
<path d="M37.4771 22.5262L37.2255 22.3861C37.2255 22.3861 37.1078 22.8772 37.1463 23.2272C37.1501 23.2627 37.1647 23.2961 37.1881 23.3231C37.2115 23.35 37.2427 23.3691 37.2773 23.3778C37.8561 23.5215 40.6145 24.1339 42.5114 23.2714C42.5389 23.2588 42.5627 23.2393 42.5804 23.2148C42.5981 23.1902 42.609 23.1615 42.6123 23.1315C42.6355 22.9164 42.5531 22.4726 42.5203 22.3861C42.4495 22.2 37.4771 22.5262 37.4771 22.5262Z" fill="#FBD56F"/>
<path opacity="0.1" d="M37.4771 22.5262L37.2255 22.3861C37.2255 22.3861 37.1078 22.8772 37.1463 23.2272C37.1501 23.2627 37.1647 23.2961 37.1881 23.3231C37.2115 23.35 37.2427 23.3691 37.2773 23.3778C37.8561 23.5215 40.6145 24.1339 42.5114 23.2714C42.5389 23.2588 42.5627 23.2393 42.5804 23.2148C42.5981 23.1902 42.609 23.1615 42.6123 23.1315C42.6355 22.9164 42.5531 22.4726 42.5203 22.3861C42.4495 22.2 37.4771 22.5262 37.4771 22.5262Z" fill="black"/>
<path d="M39.8729 22.983C41.335 22.983 42.5203 22.7158 42.5203 22.3862C42.5203 22.0566 41.335 21.7894 39.8729 21.7894C38.4107 21.7894 37.2255 22.0566 37.2255 22.3862C37.2255 22.7158 38.4107 22.983 39.8729 22.983Z" fill="#FBD56F"/>
<path d="M41.9461 30.4738L41.6945 30.3337C41.6945 30.3337 41.5769 30.8248 41.6153 31.1747C41.6191 31.2102 41.6337 31.2437 41.6571 31.2706C41.6806 31.2976 41.7117 31.3166 41.7463 31.3253C42.3251 31.469 45.0836 32.0814 46.9805 31.2189C47.008 31.2064 47.0318 31.1869 47.0494 31.1623C47.0671 31.1378 47.0781 31.1091 47.0813 31.079C47.1046 30.864 47.0222 30.4202 46.9893 30.3337C46.9186 30.1477 41.9461 30.4738 41.9461 30.4738Z" fill="#FBD56F"/>
<path opacity="0.1" d="M41.9461 30.4738L41.6945 30.3337C41.6945 30.3337 41.5769 30.8248 41.6153 31.1747C41.6191 31.2102 41.6337 31.2437 41.6571 31.2706C41.6806 31.2976 41.7117 31.3166 41.7463 31.3253C42.3251 31.469 45.0836 32.0814 46.9805 31.2189C47.008 31.2064 47.0318 31.1869 47.0494 31.1623C47.0671 31.1378 47.0781 31.1091 47.0813 31.079C47.1046 30.864 47.0222 30.4202 46.9893 30.3337C46.9186 30.1477 41.9461 30.4738 41.9461 30.4738Z" fill="black"/>
<path d="M44.3419 30.9304C45.804 30.9304 46.9893 30.6632 46.9893 30.3337C46.9893 30.0041 45.804 29.7369 44.3419 29.7369C42.8798 29.7369 41.6945 30.0041 41.6945 30.3337C41.6945 30.6632 42.8798 30.9304 44.3419 30.9304Z" fill="#FBD56F"/>
<path d="M42.8403 29.3166L42.5887 29.1765C42.5887 29.1765 42.471 29.6676 42.5095 30.0176C42.5133 30.0531 42.5279 30.0865 42.5513 30.1135C42.5747 30.1404 42.6059 30.1595 42.6405 30.1682C43.2193 30.3119 45.9778 30.9243 47.8747 30.0617C47.9022 30.0492 47.926 30.0297 47.9436 30.0052C47.9613 29.9806 47.9723 29.9519 47.9755 29.9219C47.9988 29.7068 47.9164 29.263 47.8835 29.1765C47.8128 28.9904 42.8403 29.3166 42.8403 29.3166Z" fill="#FBD56F"/>
<path opacity="0.1" d="M42.8403 29.3166L42.5887 29.1765C42.5887 29.1765 42.471 29.6676 42.5095 30.0176C42.5133 30.0531 42.5279 30.0865 42.5513 30.1135C42.5747 30.1404 42.6059 30.1595 42.6405 30.1682C43.2193 30.3119 45.9778 30.9243 47.8747 30.0617C47.9022 30.0492 47.926 30.0297 47.9436 30.0052C47.9613 29.9806 47.9723 29.9519 47.9755 29.9219C47.9988 29.7068 47.9164 29.263 47.8835 29.1765C47.8128 28.9904 42.8403 29.3166 42.8403 29.3166Z" fill="black"/>
<path d="M45.2361 29.7732C46.6983 29.7732 47.8835 29.5061 47.8835 29.1765C47.8835 28.847 46.6983 28.5798 45.2361 28.5798C43.774 28.5798 42.5887 28.847 42.5887 29.1765C42.5887 29.5061 43.774 29.7732 45.2361 29.7732Z" fill="#FBD56F"/>
<path d="M41.8501 28.1119L41.5985 27.9718C41.5985 27.9718 41.4808 28.4629 41.5193 28.8129C41.5231 28.8484 41.5376 28.8818 41.5611 28.9088C41.5845 28.9357 41.6156 28.9548 41.6503 28.9635C42.229 29.1072 44.9875 29.7196 46.8844 28.857C46.9119 28.8445 46.9357 28.825 46.9534 28.8005C46.9711 28.7759 46.982 28.7472 46.9853 28.7172C47.0085 28.5021 46.9262 28.0583 46.8933 27.9718C46.8225 27.7857 41.8501 28.1119 41.8501 28.1119Z" fill="#FBD56F"/>
<path opacity="0.1" d="M41.8501 28.1119L41.5985 27.9718C41.5985 27.9718 41.4808 28.4629 41.5193 28.8129C41.5231 28.8484 41.5376 28.8818 41.5611 28.9088C41.5845 28.9357 41.6156 28.9548 41.6503 28.9635C42.229 29.1072 44.9875 29.7196 46.8844 28.857C46.9119 28.8445 46.9357 28.825 46.9534 28.8005C46.9711 28.7759 46.982 28.7472 46.9853 28.7172C47.0085 28.5021 46.9262 28.0583 46.8933 27.9718C46.8225 27.7857 41.8501 28.1119 41.8501 28.1119Z" fill="black"/>
<path d="M44.2459 28.5687C45.708 28.5687 46.8933 28.3015 46.8933 27.9719C46.8933 27.6423 45.708 27.3751 44.2459 27.3751C42.7837 27.3751 41.5984 27.6423 41.5984 27.9719C41.5984 28.3015 42.7837 28.5687 44.2459 28.5687Z" fill="#FBD56F"/>
<path d="M44.0777 27.1452L43.8261 27.0051C43.8261 27.0051 43.7085 27.4962 43.7469 27.8462C43.7507 27.8817 43.7653 27.9152 43.7887 27.9421C43.8122 27.969 43.8433 27.9881 43.8779 27.9968C44.4567 28.1405 47.2152 28.7529 49.1121 27.8904C49.1396 27.8778 49.1634 27.8583 49.181 27.8338C49.1987 27.8093 49.2097 27.7806 49.2129 27.7505C49.2362 27.5354 49.1538 27.0916 49.1209 27.0051C49.0502 26.819 44.0777 27.1452 44.0777 27.1452Z" fill="#FBD56F"/>
<path opacity="0.1" d="M44.0777 27.1452L43.8261 27.0051C43.8261 27.0051 43.7085 27.4962 43.7469 27.8462C43.7507 27.8817 43.7653 27.9152 43.7887 27.9421C43.8122 27.969 43.8433 27.9881 43.8779 27.9968C44.4567 28.1405 47.2152 28.7529 49.1121 27.8904C49.1396 27.8778 49.1634 27.8583 49.181 27.8338C49.1987 27.8093 49.2097 27.7806 49.2129 27.7505C49.2362 27.5354 49.1538 27.0916 49.1209 27.0051C49.0502 26.819 44.0777 27.1452 44.0777 27.1452Z" fill="black"/>
<path d="M46.4736 27.6019C47.9357 27.6019 49.121 27.3347 49.121 27.0051C49.121 26.6755 47.9357 26.4083 46.4736 26.4083C45.0115 26.4083 43.8262 26.6755 43.8262 27.0051C43.8262 27.3347 45.0115 27.6019 46.4736 27.6019Z" fill="#FBD56F"/>
<path d="M42.5726 26.4954L42.321 26.3553C42.321 26.3553 42.2033 26.8464 42.2418 27.1964C42.2456 27.2319 42.2602 27.2654 42.2836 27.2923C42.307 27.3193 42.3382 27.3383 42.3728 27.347C42.9516 27.4907 45.7101 28.1031 47.607 27.2406C47.6345 27.228 47.6583 27.2085 47.676 27.184C47.6936 27.1595 47.7046 27.1308 47.7078 27.1007C47.7311 26.8856 47.6487 26.4418 47.6159 26.3553C47.5451 26.1692 42.5726 26.4954 42.5726 26.4954Z" fill="#FBD56F"/>
<path opacity="0.1" d="M42.5726 26.4954L42.321 26.3553C42.321 26.3553 42.2033 26.8464 42.2418 27.1964C42.2456 27.2319 42.2602 27.2654 42.2836 27.2923C42.307 27.3193 42.3382 27.3383 42.3728 27.347C42.9516 27.4907 45.7101 28.1031 47.607 27.2406C47.6345 27.228 47.6583 27.2085 47.676 27.184C47.6936 27.1595 47.7046 27.1308 47.7078 27.1007C47.7311 26.8856 47.6487 26.4418 47.6159 26.3553C47.5451 26.1692 42.5726 26.4954 42.5726 26.4954Z" fill="black"/>
<path d="M44.9684 26.9521C46.4306 26.9521 47.6158 26.6849 47.6158 26.3553C47.6158 26.0257 46.4306 25.7585 44.9684 25.7585C43.5063 25.7585 42.321 26.0257 42.321 26.3553C42.321 26.6849 43.5063 26.9521 44.9684 26.9521Z" fill="#FBD56F"/>
<path d="M43.5775 25.241L43.326 25.1009C43.326 25.1009 43.2083 25.592 43.2467 25.9419C43.2505 25.9774 43.2651 26.0109 43.2886 26.0378C43.312 26.0648 43.3431 26.0839 43.3777 26.0925C43.9565 26.2362 46.715 26.8486 48.6119 25.9861C48.6394 25.9736 48.6632 25.9541 48.6808 25.9295C48.6985 25.905 48.7095 25.8763 48.7127 25.8462C48.736 25.6312 48.6536 25.1874 48.6207 25.1009C48.55 24.9149 43.5775 25.241 43.5775 25.241Z" fill="#FBD56F"/>
<path opacity="0.1" d="M43.5775 25.241L43.326 25.1009C43.326 25.1009 43.2083 25.592 43.2467 25.9419C43.2505 25.9774 43.2651 26.0109 43.2886 26.0378C43.312 26.0648 43.3431 26.0839 43.3777 26.0925C43.9565 26.2362 46.715 26.8486 48.6119 25.9861C48.6394 25.9736 48.6632 25.9541 48.6808 25.9295C48.6985 25.905 48.7095 25.8763 48.7127 25.8462C48.736 25.6312 48.6536 25.1874 48.6207 25.1009C48.55 24.9149 43.5775 25.241 43.5775 25.241Z" fill="black"/>
<path d="M45.9734 25.6977C47.4355 25.6977 48.6208 25.4305 48.6208 25.1009C48.6208 24.7713 47.4355 24.5042 45.9734 24.5042C44.5112 24.5042 43.3259 24.7713 43.3259 25.1009C43.3259 25.4305 44.5112 25.6977 45.9734 25.6977Z" fill="#FBD56F"/>
<path d="M44.0732 23.752L43.8216 23.6119C43.8216 23.6119 43.7039 24.103 43.7424 24.453C43.7462 24.4885 43.7608 24.522 43.7842 24.5489C43.8077 24.5758 43.8388 24.5949 43.8734 24.6036C44.4522 24.7473 47.2107 25.3597 49.1076 24.4972C49.1351 24.4846 49.1589 24.4651 49.1765 24.4406C49.1942 24.4161 49.2052 24.3874 49.2084 24.3573C49.2317 24.1422 49.1493 23.6984 49.1164 23.6119C49.0457 23.4258 44.0732 23.752 44.0732 23.752Z" fill="#FBD56F"/>
<path opacity="0.1" d="M44.0732 23.752L43.8216 23.6119C43.8216 23.6119 43.7039 24.103 43.7424 24.453C43.7462 24.4885 43.7608 24.522 43.7842 24.5489C43.8077 24.5758 43.8388 24.5949 43.8734 24.6036C44.4522 24.7473 47.2107 25.3597 49.1076 24.4972C49.1351 24.4846 49.1589 24.4651 49.1765 24.4406C49.1942 24.4161 49.2052 24.3874 49.2084 24.3573C49.2317 24.1422 49.1493 23.6984 49.1164 23.6119C49.0457 23.4258 44.0732 23.752 44.0732 23.752Z" fill="black"/>
<path d="M46.469 24.2088C47.9311 24.2088 49.1164 23.9416 49.1164 23.612C49.1164 23.2824 47.9311 23.0153 46.469 23.0153C45.0069 23.0153 43.8216 23.2824 43.8216 23.612C43.8216 23.9416 45.0069 24.2088 46.469 24.2088Z" fill="#FBD56F"/>
<path opacity="0.1" d="M50.0718 24.1584C50.0718 24.1584 48.9792 24.6221 48.83 24.738C48.6809 24.854 50.0718 24.1584 50.0718 24.1584Z" fill="black"/>
<path d="M38.4358 34.0267C39.7717 34.0267 40.8545 32.8773 40.8545 31.4594C40.8545 30.0415 39.7717 28.8921 38.4358 28.8921C37.1 28.8921 36.0172 30.0415 36.0172 31.4594C36.0172 32.8773 37.1 34.0267 38.4358 34.0267Z" fill="#FBD56F"/>
<path opacity="0.1" d="M38.4358 34.0267C39.7717 34.0267 40.8545 32.8773 40.8545 31.4594C40.8545 30.0415 39.7717 28.8921 38.4358 28.8921C37.1 28.8921 36.0172 30.0415 36.0172 31.4594C36.0172 32.8773 37.1 34.0267 38.4358 34.0267Z" fill="black"/>
<path d="M38.8533 34.0267C40.1891 34.0267 41.272 32.9028 41.272 31.5165C41.272 30.1302 40.1891 29.0063 38.8533 29.0063C37.5175 29.0063 36.4346 30.1302 36.4346 31.5165C36.4346 32.9028 37.5175 34.0267 38.8533 34.0267Z" fill="#FBD56F"/>
<path d="M3.80527 32.8703C5.45509 32.8703 6.79254 32.6442 6.79254 32.3653C6.79254 32.0863 5.45509 31.8602 3.80527 31.8602C2.15544 31.8602 0.817993 32.0863 0.817993 32.3653C0.817993 32.6442 2.15544 32.8703 3.80527 32.8703Z" fill="white"/>
<path d="M5.04046 31.5391C5.16839 31.4202 5.2884 31.28 5.32526 31.1093C5.36212 30.9386 5.28937 30.7339 5.12625 30.6715C4.94347 30.6016 4.74816 30.7283 4.60007 30.8562C4.45199 30.9841 4.28228 31.1302 4.08848 31.1031C4.18817 31.0127 4.26275 30.8981 4.30496 30.7703C4.34718 30.6426 4.35558 30.5061 4.32934 30.3741C4.32084 30.3196 4.29768 30.2684 4.26236 30.2261C4.16089 30.1176 3.97696 30.1642 3.85547 30.2496C3.46912 30.5214 3.36132 31.0462 3.35922 31.5186C3.32025 31.3482 3.35307 31.1707 3.35211 30.9959C3.35115 30.8211 3.30325 30.6273 3.15582 30.5335C3.06397 30.484 2.96069 30.4597 2.85643 30.4631C2.68276 30.4567 2.48933 30.4741 2.37073 30.6011C2.22336 30.759 2.26158 31.0238 2.38979 31.1975C2.51799 31.3713 2.713 31.4802 2.8925 31.6002C3.03649 31.686 3.15929 31.8031 3.25176 31.9429C3.26262 31.9623 3.27155 31.9828 3.27839 32.0041H4.36715C4.61155 31.8802 4.83805 31.7238 5.04046 31.5391Z" fill="white"/>
<path d="M30.82 29.0723C30.9531 29.2545 31.0619 29.4533 31.1438 29.6636C31.1654 29.7179 31.1866 29.775 31.2066 29.835C31.5284 30.7968 31.0185 31.9502 30.8727 31.8258C30.7269 31.7014 30.2726 31.4705 30.1848 31.7949C30.0969 32.1193 29.7724 32.4509 29.7724 32.4509C29.1812 33.0455 28.6461 32.403 28.2948 31.7392C28.18 31.5202 28.078 31.2947 27.9892 31.064C27.9112 30.8601 27.8664 30.7192 27.8664 30.7192L30.3289 28.6211C30.3289 28.6211 30.5669 28.7304 30.82 29.0723Z" fill="white"/>
<path d="M26.939 30.4139C27.072 30.5961 27.1809 30.7948 27.2627 31.0051C27.2844 31.0595 27.3055 31.1166 27.3256 31.1765C27.6474 32.1383 27.1375 33.2917 26.9917 33.1673C26.8459 33.0429 26.3916 32.8121 26.3037 33.1365C26.2159 33.4608 25.8914 33.7924 25.8914 33.7924C25.3002 34.387 24.765 33.7446 24.4137 33.0807C24.299 32.8617 24.1969 32.6363 24.1081 32.4055C24.0301 32.2016 23.9854 32.0607 23.9854 32.0607L26.4478 29.9626C26.4478 29.9626 26.6859 30.0719 26.939 30.4139Z" fill="white"/>
<path d="M19.1462 32.2673C19.1324 32.4925 19.0894 32.715 19.0182 32.9291C19.0002 32.9848 18.98 33.0422 18.9572 33.1012C18.5911 34.0471 17.4624 34.6096 17.4296 34.4208C17.3968 34.232 17.1943 33.7643 16.9197 33.958C16.645 34.1517 16.1836 34.1998 16.1836 34.1998C15.3489 34.2803 15.347 33.4442 15.5002 32.7089C15.5516 32.467 15.6169 32.2283 15.6958 31.994C15.7659 31.7873 15.8213 31.6502 15.8213 31.6502L19.0561 31.6064C19.0561 31.6064 19.1696 31.8425 19.1462 32.2673Z" fill="white"/>
<path d="M14.9667 31.2132C14.9529 31.4384 14.9098 31.6609 14.8387 31.875C14.8206 31.9306 14.8005 31.9881 14.7777 32.0471C14.4116 32.9929 13.2829 33.5555 13.25 33.3666C13.2172 33.1778 13.0148 32.7102 12.7401 32.9038C12.4655 33.0975 12.004 33.1457 12.004 33.1457C11.1694 33.2262 11.1674 32.39 11.3206 31.6548C11.372 31.4129 11.4374 31.1742 11.5163 30.9399C11.5863 30.7332 11.6418 30.5961 11.6418 30.5961L14.8766 30.5524C14.8766 30.5524 14.9901 30.7884 14.9667 31.2132Z" fill="white"/>
<path opacity="0.2" d="M30.82 29.0723C30.9531 29.2545 31.0619 29.4533 31.1438 29.6636C31.1654 29.7179 31.1866 29.775 31.2066 29.835C31.5284 30.7968 31.0185 31.9502 30.8727 31.8258C30.7269 31.7014 30.2726 31.4705 30.1848 31.7949C30.0969 32.1193 29.7724 32.4509 29.7724 32.4509C29.1812 33.0455 28.6461 32.403 28.2948 31.7392C28.18 31.5202 28.078 31.2947 27.9892 31.064C27.9112 30.8601 27.8664 30.7192 27.8664 30.7192L30.3289 28.6211C30.3289 28.6211 30.5669 28.7304 30.82 29.0723Z" fill="black"/>
<path opacity="0.2" d="M26.939 30.4139C27.072 30.5961 27.1809 30.7948 27.2627 31.0051C27.2844 31.0595 27.3055 31.1166 27.3256 31.1765C27.6474 32.1383 27.1375 33.2917 26.9917 33.1673C26.8459 33.0429 26.3916 32.8121 26.3037 33.1365C26.2159 33.4608 25.8914 33.7924 25.8914 33.7924C25.3002 34.387 24.765 33.7446 24.4137 33.0807C24.299 32.8617 24.1969 32.6363 24.1081 32.4055C24.0301 32.2016 23.9854 32.0607 23.9854 32.0607L26.4478 29.9626C26.4478 29.9626 26.6859 30.0719 26.939 30.4139Z" fill="black"/>
<path opacity="0.2" d="M19.1462 32.2673C19.1324 32.4925 19.0894 32.715 19.0182 32.9291C19.0002 32.9848 18.98 33.0422 18.9572 33.1012C18.5911 34.0471 17.4624 34.6096 17.4296 34.4208C17.3968 34.232 17.1943 33.7643 16.9197 33.958C16.645 34.1517 16.1836 34.1998 16.1836 34.1998C15.3489 34.2803 15.347 33.4442 15.5002 32.7089C15.5516 32.467 15.6169 32.2283 15.6958 31.994C15.7659 31.7873 15.8213 31.6502 15.8213 31.6502L19.0561 31.6064C19.0561 31.6064 19.1696 31.8425 19.1462 32.2673Z" fill="black"/>
<path opacity="0.2" d="M14.9667 31.2132C14.9529 31.4384 14.9098 31.6609 14.8387 31.875C14.8206 31.9306 14.8005 31.9881 14.7777 32.0471C14.4116 32.9929 13.2829 33.5555 13.25 33.3666C13.2172 33.1778 13.0148 32.7102 12.7401 32.9038C12.4655 33.0975 12.004 33.1457 12.004 33.1457C11.1694 33.2262 11.1674 32.39 11.3206 31.6548C11.372 31.4129 11.4374 31.1742 11.5163 30.9399C11.5863 30.7332 11.6418 30.5961 11.6418 30.5961L14.8766 30.5524C14.8766 30.5524 14.9901 30.7884 14.9667 31.2132Z" fill="black"/>
<path d="M37.3885 17.0364C37.3885 25.6764 34.4657 32.6804 20.9779 32.6804C11.9146 32.6804 4.90273 30.4285 4.56733 17.0364C4.35101 8.39922 11.9146 1.39246 20.9779 1.39246C30.0412 1.39246 37.3885 8.39651 37.3885 17.0364Z" fill="white"/>
<path opacity="0.2" d="M17.8994 1.66553H17.9068C17.9051 1.66651 17.9032 1.66712 17.9012 1.66735L17.8994 1.66553Z" fill="black"/>
<path opacity="0.2" d="M17.9315 1.66023C17.9732 1.65353 18.0556 1.64203 18.1754 1.63293L17.9085 1.66454C17.9123 1.66358 17.9171 1.66262 17.9229 1.66167C17.9258 1.66119 17.9282 1.66071 17.9315 1.66023Z" fill="black"/>
<path opacity="0.2" d="M30.0576 8.05249L28.8598 8.48372C28.2491 7.66483 27.5921 6.88159 26.8919 6.13783C26.1277 5.32271 25.2939 4.57578 24.3999 3.9055C21.3329 1.63245 18.9607 1.57447 18.1773 1.63292L19.9779 1.42114C21.6797 1.71396 23.3163 2.30556 24.812 3.16858C25.8584 3.77178 26.8329 4.49175 27.717 5.31466C29.2848 6.76982 30.0576 8.05249 30.0576 8.05249Z" fill="black"/>
<path opacity="0.2" d="M19.229 8.867C19.229 8.867 17.6478 3.59644 18.9894 2.15902C18.9894 2.15902 21.0977 1.44031 22.6788 5.51301L19.229 8.867Z" fill="black"/>
<path d="M27.2355 3.94439C27.2355 3.94439 31.4286 0.381156 33.2836 1.03318C33.2836 1.03318 34.7879 2.67581 31.6919 5.75837L27.2355 3.94439Z" fill="white"/>
<path opacity="0.2" d="M27.2355 3.94439C27.2355 3.94439 31.4286 0.381156 33.2836 1.03318C33.2836 1.03318 34.7879 2.67581 31.6919 5.75837L27.2355 3.94439Z" fill="black"/>
<path d="M40.3113 21.0133C40.3113 25.6574 36.9786 29.3264 33.8429 29.3264C30.7071 29.3264 28.9556 25.6574 28.9556 21.0133C28.9556 16.3692 31.5029 12.7859 34.6334 12.6044C39.5926 12.3169 40.3113 16.3692 40.3113 21.0133Z" fill="white"/>
<path opacity="0.2" d="M40.3113 21.0133C40.3113 25.6574 36.9786 29.3264 33.8429 29.3264C30.7071 29.3264 28.9556 25.6574 28.9556 21.0133C28.9556 16.3692 31.5029 12.7859 34.6334 12.6044C39.5926 12.3169 40.3113 16.3692 40.3113 21.0133Z" fill="black"/>
<path d="M33.6512 23.0496C34.2334 23.0496 34.7053 22.449 34.7053 21.708C34.7053 20.9671 34.2334 20.3665 33.6512 20.3665C33.069 20.3665 32.597 20.9671 32.597 21.708C32.597 22.449 33.069 23.0496 33.6512 23.0496Z" fill="white"/>
<path d="M37.3885 21.8997C37.9707 21.8997 38.4427 21.2991 38.4427 20.5581C38.4427 19.8172 37.9707 19.2166 37.3885 19.2166C36.8064 19.2166 36.3344 19.8172 36.3344 20.5581C36.3344 21.2991 36.8064 21.8997 37.3885 21.8997Z" fill="white"/>
<path d="M27.9216 4.44934C27.9224 4.74985 27.8523 5.0463 27.7171 5.31467C27.5386 5.67126 27.249 5.96017 26.892 6.13783C26.1278 5.32272 25.2939 4.57579 24.4 3.90552C24.4796 3.63179 24.6205 3.37979 24.812 3.16861C24.9771 2.98454 25.179 2.83718 25.4047 2.73608C25.6304 2.63497 25.8747 2.58236 26.122 2.58167C27.1157 2.58166 27.9216 3.41776 27.9216 4.44934Z" fill="#FAD46F"/>
</svg>
