<svg width="337" height="229" viewBox="0 0 337 229" fill="none" xmlns="http://www.w3.org/2000/svg">
<path d="M219.767 200.986C228.895 200.986 236.294 193.132 236.294 183.443C236.294 173.754 228.895 165.899 219.767 165.899C210.639 165.899 203.239 173.754 203.239 183.443C203.239 193.132 210.639 200.986 219.767 200.986Z" fill="#FBD56F"/>
<path opacity="0.1" d="M219.767 200.986C228.895 200.986 236.294 193.132 236.294 183.443C236.294 173.754 228.895 165.899 219.767 165.899C210.639 165.899 203.239 173.754 203.239 183.443C203.239 193.132 210.639 200.986 219.767 200.986Z" fill="black"/>
<path d="M222.619 200.986C231.747 200.986 239.147 193.307 239.147 183.833C239.147 174.36 231.747 166.68 222.619 166.68C213.491 166.68 206.091 174.36 206.091 183.833C206.091 193.307 213.491 200.986 222.619 200.986Z" fill="#FBD56F"/>
<path d="M229.313 199.378L227.594 198.421C227.594 198.421 226.79 201.776 227.053 204.167C227.079 204.41 227.178 204.639 227.339 204.823C227.499 205.007 227.711 205.137 227.948 205.196C231.903 206.178 250.753 210.363 263.715 204.469C263.903 204.383 264.065 204.25 264.186 204.083C264.307 203.915 264.382 203.719 264.404 203.513C264.563 202.044 264 199.011 263.775 198.421C263.292 197.149 229.313 199.378 229.313 199.378Z" fill="#FBD56F"/>
<path opacity="0.1" d="M229.313 199.378L227.594 198.421C227.594 198.421 226.79 201.776 227.053 204.167C227.079 204.41 227.178 204.639 227.339 204.823C227.499 205.007 227.711 205.137 227.948 205.196C231.903 206.178 250.753 210.363 263.715 204.469C263.903 204.383 264.065 204.25 264.186 204.083C264.307 203.915 264.382 203.719 264.404 203.513C264.563 202.044 264 199.011 263.775 198.421C263.292 197.149 229.313 199.378 229.313 199.378Z" fill="black"/>
<path d="M245.685 202.498C255.676 202.498 263.775 200.673 263.775 198.42C263.775 196.168 255.676 194.343 245.685 194.343C235.694 194.343 227.594 196.168 227.594 198.42C227.594 200.673 235.694 202.498 245.685 202.498Z" fill="#FBD56F"/>
<path d="M236.225 193.361L234.506 192.404C234.506 192.404 233.702 195.76 233.964 198.151C233.99 198.394 234.09 198.623 234.25 198.807C234.41 198.991 234.623 199.121 234.86 199.18C238.815 200.163 257.664 204.347 270.626 198.453C270.814 198.367 270.977 198.234 271.098 198.067C271.218 197.899 271.293 197.703 271.315 197.497C271.474 196.028 270.911 192.995 270.687 192.404C270.203 191.132 236.225 193.361 236.225 193.361Z" fill="#FBD56F"/>
<path opacity="0.1" d="M236.225 193.361L234.506 192.404C234.506 192.404 233.702 195.76 233.964 198.151C233.99 198.394 234.09 198.623 234.25 198.807C234.41 198.991 234.623 199.121 234.86 199.18C238.815 200.163 257.664 204.347 270.626 198.453C270.814 198.367 270.977 198.234 271.098 198.067C271.218 197.899 271.293 197.703 271.315 197.497C271.474 196.028 270.911 192.995 270.687 192.404C270.203 191.132 236.225 193.361 236.225 193.361Z" fill="black"/>
<path d="M252.596 196.482C262.587 196.482 270.687 194.656 270.687 192.404C270.687 190.152 262.587 188.326 252.596 188.326C242.605 188.326 234.506 190.152 234.506 192.404C234.506 194.656 242.605 196.482 252.596 196.482Z" fill="#FBD56F"/>
<path d="M242.335 185.454L240.616 184.496C240.616 184.496 239.812 187.852 240.075 190.244C240.101 190.486 240.2 190.715 240.36 190.899C240.521 191.083 240.733 191.214 240.97 191.273C244.925 192.255 263.775 196.44 276.737 190.546C276.925 190.46 277.087 190.327 277.208 190.159C277.329 189.991 277.404 189.795 277.426 189.59C277.585 188.12 277.022 185.087 276.797 184.497C276.314 183.225 242.335 185.454 242.335 185.454Z" fill="#FBD56F"/>
<path opacity="0.1" d="M242.335 185.454L240.616 184.496C240.616 184.496 239.812 187.852 240.075 190.244C240.101 190.486 240.2 190.715 240.36 190.899C240.521 191.083 240.733 191.214 240.97 191.273C244.925 192.255 263.775 196.44 276.737 190.546C276.925 190.46 277.087 190.327 277.208 190.159C277.329 189.991 277.404 189.795 277.426 189.59C277.585 188.12 277.022 185.087 276.797 184.497C276.314 183.225 242.335 185.454 242.335 185.454Z" fill="black"/>
<path d="M258.707 188.575C268.698 188.575 276.797 186.749 276.797 184.497C276.797 182.245 268.698 180.419 258.707 180.419C248.715 180.419 240.616 182.245 240.616 184.497C240.616 186.749 248.715 188.575 258.707 188.575Z" fill="#FBD56F"/>
<path d="M235.568 177.222L233.849 176.265C233.849 176.265 233.045 179.62 233.308 182.012C233.334 182.254 233.434 182.483 233.594 182.667C233.754 182.851 233.967 182.981 234.203 183.041C238.158 184.023 257.008 188.207 269.97 182.313C270.158 182.228 270.32 182.094 270.441 181.927C270.562 181.759 270.637 181.563 270.659 181.358C270.818 179.888 270.255 176.856 270.03 176.265C269.547 174.993 235.568 177.222 235.568 177.222Z" fill="#FBD56F"/>
<path opacity="0.1" d="M235.568 177.222L233.849 176.265C233.849 176.265 233.045 179.62 233.308 182.012C233.334 182.254 233.434 182.483 233.594 182.667C233.754 182.851 233.967 182.981 234.203 183.041C238.158 184.023 257.008 188.207 269.97 182.313C270.158 182.228 270.32 182.094 270.441 181.927C270.562 181.759 270.637 181.563 270.659 181.358C270.818 179.888 270.255 176.856 270.03 176.265C269.547 174.993 235.568 177.222 235.568 177.222Z" fill="black"/>
<path d="M251.94 180.342C261.931 180.342 270.031 178.516 270.031 176.264C270.031 174.012 261.931 172.187 251.94 172.187C241.949 172.187 233.849 174.012 233.849 176.264C233.849 178.516 241.949 180.342 251.94 180.342Z" fill="#FBD56F"/>
<path d="M250.791 170.616L249.072 169.658C249.072 169.658 248.268 173.014 248.531 175.405C248.556 175.648 248.656 175.877 248.816 176.061C248.976 176.245 249.189 176.375 249.426 176.434C253.381 177.417 272.231 181.601 285.193 175.707C285.381 175.621 285.543 175.488 285.664 175.321C285.785 175.153 285.86 174.957 285.882 174.751C286.041 173.282 285.478 170.249 285.253 169.658C284.77 168.387 250.791 170.616 250.791 170.616Z" fill="#FBD56F"/>
<path opacity="0.1" d="M250.791 170.616L249.072 169.658C249.072 169.658 248.268 173.014 248.531 175.405C248.556 175.648 248.656 175.877 248.816 176.061C248.976 176.245 249.189 176.375 249.426 176.434C253.381 177.417 272.231 181.601 285.193 175.707C285.381 175.621 285.543 175.488 285.664 175.321C285.785 175.153 285.86 174.957 285.882 174.751C286.041 173.282 285.478 170.249 285.253 169.658C284.77 168.387 250.791 170.616 250.791 170.616Z" fill="black"/>
<path d="M267.163 173.736C277.154 173.736 285.253 171.91 285.253 169.658C285.253 167.406 277.154 165.581 267.163 165.581C257.171 165.581 249.072 167.406 249.072 169.658C249.072 171.91 257.171 173.736 267.163 173.736Z" fill="#FBD56F"/>
<path d="M240.506 166.176L238.787 165.219C238.787 165.219 237.983 168.575 238.246 170.966C238.271 171.209 238.371 171.437 238.531 171.621C238.691 171.805 238.904 171.936 239.141 171.995C243.096 172.977 261.945 177.162 274.908 171.268C275.096 171.182 275.258 171.049 275.379 170.881C275.5 170.714 275.575 170.517 275.597 170.312C275.756 168.842 275.193 165.81 274.968 165.219C274.485 163.947 240.506 166.176 240.506 166.176Z" fill="#FBD56F"/>
<path opacity="0.1" d="M240.506 166.176L238.787 165.219C238.787 165.219 237.983 168.575 238.246 170.966C238.271 171.209 238.371 171.437 238.531 171.621C238.691 171.805 238.904 171.936 239.141 171.995C243.096 172.977 261.945 177.162 274.908 171.268C275.096 171.182 275.258 171.049 275.379 170.881C275.5 170.714 275.575 170.517 275.597 170.312C275.756 168.842 275.193 165.81 274.968 165.219C274.485 163.947 240.506 166.176 240.506 166.176Z" fill="black"/>
<path d="M256.877 169.296C266.869 169.296 274.968 167.471 274.968 165.218C274.968 162.966 266.869 161.141 256.877 161.141C246.886 161.141 238.787 162.966 238.787 165.218C238.787 167.471 246.886 169.296 256.877 169.296Z" fill="#FBD56F"/>
<path d="M247.373 157.604L245.654 156.647C245.654 156.647 244.85 160.003 245.112 162.394C245.138 162.637 245.238 162.865 245.398 163.049C245.558 163.233 245.771 163.364 246.008 163.423C249.963 164.405 268.812 168.59 281.774 162.696C281.962 162.61 282.125 162.477 282.246 162.309C282.366 162.142 282.441 161.946 282.463 161.74C282.622 160.27 282.06 157.238 281.835 156.647C281.351 155.375 247.373 157.604 247.373 157.604Z" fill="#FBD56F"/>
<path opacity="0.1" d="M247.373 157.604L245.654 156.647C245.654 156.647 244.85 160.003 245.112 162.394C245.138 162.637 245.238 162.865 245.398 163.049C245.558 163.233 245.771 163.364 246.008 163.423C249.963 164.405 268.812 168.59 281.774 162.696C281.962 162.61 282.125 162.477 282.246 162.309C282.366 162.142 282.441 161.946 282.463 161.74C282.622 160.27 282.06 157.238 281.835 156.647C281.351 155.375 247.373 157.604 247.373 157.604Z" fill="black"/>
<path d="M263.744 160.725C273.735 160.725 281.835 158.899 281.835 156.647C281.835 154.395 273.735 152.569 263.744 152.569C253.753 152.569 245.654 154.395 245.654 156.647C245.654 158.899 253.753 160.725 263.744 160.725Z" fill="#FBD56F"/>
<path d="M250.76 147.429L249.041 146.472C249.041 146.472 248.237 149.828 248.499 152.219C248.525 152.462 248.625 152.691 248.785 152.875C248.945 153.059 249.158 153.189 249.395 153.248C253.35 154.231 272.199 158.415 285.162 152.521C285.349 152.435 285.512 152.302 285.633 152.135C285.753 151.967 285.829 151.771 285.85 151.565C286.009 150.096 285.447 147.063 285.222 146.472C284.738 145.2 250.76 147.429 250.76 147.429Z" fill="#FBD56F"/>
<path opacity="0.1" d="M250.76 147.429L249.041 146.472C249.041 146.472 248.237 149.828 248.499 152.219C248.525 152.462 248.625 152.691 248.785 152.875C248.945 153.059 249.158 153.189 249.395 153.248C253.35 154.231 272.199 158.415 285.162 152.521C285.349 152.435 285.512 152.302 285.633 152.135C285.753 151.967 285.829 151.771 285.85 151.565C286.009 150.096 285.447 147.063 285.222 146.472C284.738 145.2 250.76 147.429 250.76 147.429Z" fill="black"/>
<path d="M267.131 150.551C277.122 150.551 285.222 148.725 285.222 146.473C285.222 144.22 277.122 142.395 267.131 142.395C257.14 142.395 249.041 144.22 249.041 146.473C249.041 148.725 257.14 150.551 267.131 150.551Z" fill="#FBD56F"/>
<path d="M281.299 201.738L279.579 200.781C279.579 200.781 278.775 204.136 279.038 206.527C279.064 206.77 279.164 206.999 279.324 207.183C279.484 207.367 279.697 207.497 279.933 207.556C283.888 208.538 302.738 212.723 315.7 206.829C315.888 206.743 316.05 206.61 316.171 206.443C316.292 206.275 316.367 206.079 316.389 205.873C316.548 204.404 315.985 201.371 315.761 200.781C315.277 199.509 281.299 201.738 281.299 201.738Z" fill="#FBD56F"/>
<path opacity="0.1" d="M281.299 201.738L279.579 200.781C279.579 200.781 278.775 204.136 279.038 206.527C279.064 206.77 279.164 206.999 279.324 207.183C279.484 207.367 279.697 207.497 279.933 207.556C283.888 208.538 302.738 212.723 315.7 206.829C315.888 206.743 316.05 206.61 316.171 206.443C316.292 206.275 316.367 206.079 316.389 205.873C316.548 204.404 315.985 201.371 315.761 200.781C315.277 199.509 281.299 201.738 281.299 201.738Z" fill="black"/>
<path d="M297.67 204.858C307.661 204.858 315.761 203.032 315.761 200.78C315.761 198.528 307.661 196.703 297.67 196.703C287.679 196.703 279.579 198.528 279.579 200.78C279.579 203.032 287.679 204.858 297.67 204.858Z" fill="#FBD56F"/>
<path d="M287.409 193.83L285.69 192.872C285.69 192.872 284.885 196.228 285.148 198.62C285.174 198.862 285.274 199.091 285.434 199.275C285.594 199.459 285.807 199.59 286.043 199.649C289.998 200.631 308.848 204.816 321.81 198.922C321.998 198.836 322.161 198.703 322.281 198.535C322.402 198.367 322.477 198.171 322.499 197.966C322.658 196.496 322.095 193.463 321.871 192.872C321.387 191.601 287.409 193.83 287.409 193.83Z" fill="#FBD56F"/>
<path opacity="0.1" d="M287.409 193.83L285.69 192.872C285.69 192.872 284.885 196.228 285.148 198.62C285.174 198.862 285.274 199.091 285.434 199.275C285.594 199.459 285.807 199.59 286.043 199.649C289.998 200.631 308.848 204.816 321.81 198.922C321.998 198.836 322.161 198.703 322.281 198.535C322.402 198.367 322.477 198.171 322.499 197.966C322.658 196.496 322.095 193.463 321.871 192.872C321.387 191.601 287.409 193.83 287.409 193.83Z" fill="black"/>
<path d="M303.78 196.95C313.771 196.95 321.871 195.125 321.871 192.873C321.871 190.621 313.771 188.795 303.78 188.795C293.789 188.795 285.69 190.621 285.69 192.873C285.69 195.125 293.789 196.95 303.78 196.95Z" fill="#FBD56F"/>
<path d="M280.642 185.598L278.923 184.641C278.923 184.641 278.119 187.997 278.382 190.388C278.407 190.631 278.507 190.859 278.667 191.043C278.827 191.227 279.04 191.358 279.277 191.417C283.232 192.399 302.081 196.584 315.044 190.69C315.232 190.604 315.394 190.471 315.515 190.303C315.636 190.136 315.711 189.94 315.733 189.734C315.892 188.264 315.329 185.232 315.104 184.641C314.621 183.369 280.642 185.598 280.642 185.598Z" fill="#FBD56F"/>
<path opacity="0.1" d="M280.642 185.598L278.923 184.641C278.923 184.641 278.119 187.997 278.382 190.388C278.407 190.631 278.507 190.859 278.667 191.043C278.827 191.227 279.04 191.358 279.277 191.417C283.232 192.399 302.081 196.584 315.044 190.69C315.232 190.604 315.394 190.471 315.515 190.303C315.636 190.136 315.711 189.94 315.733 189.734C315.892 188.264 315.329 185.232 315.104 184.641C314.621 183.369 280.642 185.598 280.642 185.598Z" fill="black"/>
<path d="M297.013 188.719C307.005 188.719 315.104 186.893 315.104 184.641C315.104 182.389 307.005 180.563 297.013 180.563C287.022 180.563 278.923 182.389 278.923 184.641C278.923 186.893 287.022 188.719 297.013 188.719Z" fill="#FBD56F"/>
<path d="M295.865 178.992L294.145 178.035C294.145 178.035 293.341 181.391 293.604 183.782C293.63 184.025 293.73 184.254 293.89 184.438C294.05 184.622 294.263 184.752 294.499 184.811C298.454 185.794 317.304 189.978 330.266 184.084C330.454 183.998 330.617 183.865 330.737 183.698C330.858 183.53 330.933 183.334 330.955 183.128C331.114 181.659 330.551 178.626 330.327 178.035C329.843 176.763 295.865 178.992 295.865 178.992Z" fill="#FBD56F"/>
<path opacity="0.1" d="M295.865 178.992L294.145 178.035C294.145 178.035 293.341 181.391 293.604 183.782C293.63 184.025 293.73 184.254 293.89 184.438C294.05 184.622 294.263 184.752 294.499 184.811C298.454 185.794 317.304 189.978 330.266 184.084C330.454 183.998 330.617 183.865 330.737 183.698C330.858 183.53 330.933 183.334 330.955 183.128C331.114 181.659 330.551 178.626 330.327 178.035C329.843 176.763 295.865 178.992 295.865 178.992Z" fill="black"/>
<path d="M312.236 182.113C322.227 182.113 330.327 180.287 330.327 178.035C330.327 175.783 322.227 173.957 312.236 173.957C302.245 173.957 294.145 175.783 294.145 178.035C294.145 180.287 302.245 182.113 312.236 182.113Z" fill="#FBD56F"/>
<path d="M285.58 174.552L283.86 173.595C283.86 173.595 283.056 176.951 283.319 179.342C283.345 179.585 283.445 179.813 283.605 179.997C283.765 180.181 283.978 180.312 284.214 180.371C288.169 181.353 307.019 185.538 319.981 179.644C320.169 179.558 320.332 179.425 320.452 179.257C320.573 179.09 320.648 178.894 320.67 178.688C320.829 177.218 320.266 174.186 320.042 173.595C319.558 172.323 285.58 174.552 285.58 174.552Z" fill="#FBD56F"/>
<path opacity="0.1" d="M285.58 174.552L283.86 173.595C283.86 173.595 283.056 176.951 283.319 179.342C283.345 179.585 283.445 179.813 283.605 179.997C283.765 180.181 283.978 180.312 284.214 180.371C288.169 181.353 307.019 185.538 319.981 179.644C320.169 179.558 320.332 179.425 320.452 179.257C320.573 179.09 320.648 178.894 320.67 178.688C320.829 177.218 320.266 174.186 320.042 173.595C319.558 172.323 285.58 174.552 285.58 174.552Z" fill="black"/>
<path d="M301.951 177.673C311.942 177.673 320.042 175.847 320.042 173.595C320.042 171.343 311.942 169.517 301.951 169.517C291.96 169.517 283.86 171.343 283.86 173.595C283.86 175.847 291.96 177.673 301.951 177.673Z" fill="#FBD56F"/>
<path d="M292.446 165.98L290.727 165.023C290.727 165.023 289.923 168.379 290.186 170.77C290.212 171.012 290.311 171.241 290.472 171.425C290.632 171.609 290.844 171.74 291.081 171.799C295.036 172.781 313.886 176.965 326.848 171.072C327.036 170.986 327.198 170.853 327.319 170.685C327.44 170.518 327.515 170.321 327.537 170.116C327.696 168.646 327.133 165.614 326.908 165.023C326.425 163.752 292.446 165.98 292.446 165.98Z" fill="#FBD56F"/>
<path opacity="0.1" d="M292.446 165.98L290.727 165.023C290.727 165.023 289.923 168.379 290.186 170.77C290.212 171.012 290.311 171.241 290.472 171.425C290.632 171.609 290.844 171.74 291.081 171.799C295.036 172.781 313.886 176.965 326.848 171.072C327.036 170.986 327.198 170.853 327.319 170.685C327.44 170.518 327.515 170.321 327.537 170.116C327.696 168.646 327.133 165.614 326.908 165.023C326.425 163.752 292.446 165.98 292.446 165.98Z" fill="black"/>
<path d="M308.818 169.101C318.809 169.101 326.908 167.275 326.908 165.023C326.908 162.771 318.809 160.945 308.818 160.945C298.826 160.945 290.727 162.771 290.727 165.023C290.727 167.275 298.826 169.101 308.818 169.101Z" fill="#FBD56F"/>
<path d="M295.834 155.805L294.114 154.848C294.114 154.848 293.31 158.204 293.573 160.595C293.599 160.838 293.699 161.067 293.859 161.251C294.019 161.435 294.232 161.565 294.468 161.624C298.423 162.607 317.273 166.791 330.235 160.897C330.423 160.811 330.585 160.678 330.706 160.511C330.827 160.343 330.902 160.147 330.924 159.941C331.083 158.472 330.52 155.439 330.296 154.848C329.812 153.576 295.834 155.805 295.834 155.805Z" fill="#FBD56F"/>
<path opacity="0.1" d="M295.834 155.805L294.114 154.848C294.114 154.848 293.31 158.204 293.573 160.595C293.599 160.838 293.699 161.067 293.859 161.251C294.019 161.435 294.232 161.565 294.468 161.624C298.423 162.607 317.273 166.791 330.235 160.897C330.423 160.811 330.585 160.678 330.706 160.511C330.827 160.343 330.902 160.147 330.924 159.941C331.083 158.472 330.52 155.439 330.296 154.848C329.812 153.576 295.834 155.805 295.834 155.805Z" fill="black"/>
<path d="M312.205 158.927C322.196 158.927 330.295 157.101 330.295 154.849C330.295 152.596 322.196 150.771 312.205 150.771C302.214 150.771 294.114 152.596 294.114 154.849C294.114 157.101 302.214 158.927 312.205 158.927Z" fill="#FBD56F"/>
<path opacity="0.1" d="M336.824 158.582C336.824 158.582 329.358 161.751 328.339 162.543C327.319 163.335 336.824 158.582 336.824 158.582Z" fill="black"/>
<path d="M257.311 226.016C266.439 226.016 273.839 218.162 273.839 208.473C273.839 198.784 266.439 190.93 257.311 190.93C248.183 190.93 240.784 198.784 240.784 208.473C240.784 218.162 248.183 226.016 257.311 226.016Z" fill="#FBD56F"/>
<path opacity="0.1" d="M257.311 226.016C266.439 226.016 273.839 218.162 273.839 208.473C273.839 198.784 266.439 190.93 257.311 190.93C248.183 190.93 240.784 198.784 240.784 208.473C240.784 218.162 248.183 226.016 257.311 226.016Z" fill="black"/>
<path d="M260.164 226.016C269.292 226.016 276.692 218.337 276.692 208.863C276.692 199.39 269.292 191.711 260.164 191.711C251.036 191.711 243.636 199.39 243.636 208.863C243.636 218.337 251.036 226.016 260.164 226.016Z" fill="#FBD56F"/>
<path d="M20.6693 218.114C31.9431 218.114 41.0824 216.569 41.0824 214.663C41.0824 212.757 31.9431 211.212 20.6693 211.212C9.39546 211.212 0.256226 212.757 0.256226 214.663C0.256226 216.569 9.39546 218.114 20.6693 218.114Z" fill="white"/>
<path d="M29.11 209.017C29.9842 208.205 30.8042 207.247 31.0561 206.08C31.308 204.914 30.8109 203.515 29.6962 203.089C28.4472 202.611 27.1126 203.477 26.1007 204.351C25.0888 205.225 23.9291 206.223 22.6048 206.038C23.286 205.42 23.7956 204.637 24.0841 203.764C24.3726 202.891 24.4299 201.958 24.2507 201.057C24.1925 200.684 24.0343 200.335 23.7929 200.045C23.0996 199.304 21.8427 199.622 21.0126 200.206C18.3725 202.063 17.6358 205.649 17.6215 208.877C17.3552 207.713 17.5795 206.5 17.5729 205.305C17.5663 204.111 17.2391 202.787 16.2316 202.145C15.604 201.808 14.8982 201.642 14.1858 201.665C12.999 201.621 11.6773 201.74 10.8668 202.608C9.85983 203.686 10.121 205.496 10.9971 206.683C11.8731 207.871 13.2057 208.615 14.4323 209.435C15.4162 210.021 16.2553 210.821 16.8872 211.776C16.9614 211.909 17.0224 212.05 17.0692 212.195H24.509C26.1791 211.348 27.7268 210.279 29.11 209.017V209.017Z" fill="white"/>
<path d="M205.27 192.161C206.179 193.406 206.923 194.764 207.482 196.201C207.63 196.573 207.775 196.963 207.912 197.372C210.111 203.945 206.626 211.827 205.63 210.976C204.634 210.126 201.529 208.549 200.929 210.766C200.329 212.982 198.111 215.248 198.111 215.248C194.072 219.311 190.415 214.921 188.014 210.385C187.23 208.888 186.533 207.347 185.926 205.771C185.393 204.377 185.087 203.415 185.087 203.415L201.914 189.078C201.914 189.078 203.541 189.824 205.27 192.161Z" fill="white"/>
<path d="M178.749 201.328C179.659 202.573 180.402 203.932 180.962 205.368C181.11 205.74 181.254 206.13 181.391 206.54C183.59 213.112 180.106 220.994 179.109 220.144C178.113 219.294 175.009 217.716 174.409 219.933C173.808 222.149 171.591 224.415 171.591 224.415C167.551 228.478 163.894 224.088 161.494 219.552C160.71 218.055 160.012 216.515 159.405 214.938C158.872 213.545 158.566 212.582 158.566 212.582L175.393 198.245C175.393 198.245 177.02 198.992 178.749 201.328Z" fill="white"/>
<path d="M125.499 213.993C125.405 215.532 125.111 217.052 124.624 218.516C124.501 218.896 124.363 219.289 124.207 219.691C121.706 226.155 113.993 229.999 113.769 228.709C113.544 227.419 112.161 224.223 110.284 225.546C108.408 226.87 105.255 227.199 105.255 227.199C99.5511 227.749 99.5376 222.035 100.585 217.011C100.936 215.358 101.382 213.727 101.922 212.126C102.4 210.713 102.779 209.776 102.779 209.776L124.883 209.477C124.883 209.477 125.659 211.091 125.499 213.993Z" fill="white"/>
<path d="M96.9391 206.79C96.8446 208.329 96.5504 209.85 96.0641 211.313C95.9408 211.693 95.8031 212.086 95.6472 212.489C93.1457 218.952 85.433 222.796 85.2085 221.506C84.9841 220.215 83.6008 217.02 81.724 218.343C79.8472 219.667 76.6941 219.996 76.6941 219.996C70.9906 220.546 70.9772 214.832 72.0241 209.808C72.3755 208.155 72.8219 206.524 73.3611 204.923C73.8399 203.51 74.2187 202.574 74.2187 202.574L96.3231 202.275C96.3231 202.275 97.0989 203.888 96.9391 206.79Z" fill="white"/>
<path opacity="0.2" d="M205.27 192.161C206.179 193.406 206.923 194.764 207.482 196.201C207.63 196.573 207.775 196.963 207.912 197.372C210.111 203.945 206.626 211.827 205.63 210.976C204.634 210.126 201.529 208.549 200.929 210.766C200.329 212.982 198.111 215.248 198.111 215.248C194.072 219.311 190.415 214.921 188.014 210.385C187.23 208.888 186.533 207.347 185.926 205.771C185.393 204.377 185.087 203.415 185.087 203.415L201.914 189.078C201.914 189.078 203.541 189.824 205.27 192.161Z" fill="black"/>
<path opacity="0.2" d="M178.749 201.328C179.659 202.573 180.402 203.932 180.962 205.368C181.11 205.74 181.254 206.13 181.391 206.54C183.59 213.112 180.106 220.994 179.109 220.144C178.113 219.294 175.009 217.716 174.409 219.933C173.808 222.149 171.591 224.415 171.591 224.415C167.551 228.478 163.894 224.088 161.494 219.552C160.71 218.055 160.012 216.515 159.405 214.938C158.872 213.545 158.566 212.582 158.566 212.582L175.393 198.245C175.393 198.245 177.02 198.992 178.749 201.328Z" fill="black"/>
<path opacity="0.2" d="M125.499 213.993C125.405 215.532 125.111 217.052 124.624 218.516C124.501 218.896 124.363 219.289 124.207 219.691C121.706 226.155 113.993 229.999 113.769 228.709C113.544 227.419 112.161 224.223 110.284 225.546C108.408 226.87 105.255 227.199 105.255 227.199C99.5511 227.749 99.5376 222.035 100.585 217.011C100.936 215.358 101.382 213.727 101.922 212.126C102.4 210.713 102.779 209.776 102.779 209.776L124.883 209.477C124.883 209.477 125.659 211.091 125.499 213.993Z" fill="black"/>
<path opacity="0.2" d="M96.9391 206.79C96.8446 208.329 96.5504 209.85 96.0641 211.313C95.9408 211.693 95.8031 212.086 95.6472 212.489C93.1457 218.952 85.433 222.796 85.2085 221.506C84.9841 220.215 83.6008 217.02 81.724 218.343C79.8472 219.667 76.6941 219.996 76.6941 219.996C70.9906 220.546 70.9772 214.832 72.0241 209.808C72.3755 208.155 72.8219 206.524 73.3611 204.923C73.8399 203.51 74.2187 202.574 74.2187 202.574L96.3231 202.275C96.3231 202.275 97.0989 203.888 96.9391 206.79Z" fill="black"/>
<path d="M250.155 109.916C250.155 168.955 230.182 216.816 138.016 216.816C76.083 216.816 28.1685 201.428 25.8766 109.916C24.3984 50.8944 76.0829 3.01489 138.016 3.01489C199.948 3.01489 250.155 50.8759 250.155 109.916Z" fill="white"/>
<path opacity="0.2" d="M116.979 4.88123H117.009C117.002 4.8852 116.995 4.88772 116.987 4.88864L116.979 4.88123Z" fill="black"/>
<path opacity="0.2" d="M117.199 4.8452C117.484 4.79941 118.047 4.72087 118.865 4.65869L117.042 4.87465C117.068 4.8681 117.101 4.86156 117.14 4.85501C117.159 4.85173 117.176 4.84846 117.199 4.8452Z" fill="black"/>
<path opacity="0.2" d="M200.06 48.5256L191.875 51.4723C187.703 45.8766 183.213 40.5244 178.428 35.4421C173.206 29.8721 167.508 24.768 161.4 20.1878C140.442 4.65528 124.232 4.25911 118.878 4.65853L131.183 3.21136C142.812 5.21228 153.995 9.25486 164.215 15.1522C171.366 19.2741 178.025 24.1939 184.066 29.8171C194.779 39.7607 200.06 48.5256 200.06 48.5256Z" fill="black"/>
<path opacity="0.2" d="M126.065 54.0915C126.065 54.0915 115.261 18.076 124.428 8.25359C124.428 8.25359 138.834 3.3424 149.639 31.1726L126.065 54.0915Z" fill="black"/>
<path d="M180.776 20.453C180.776 20.453 209.429 -3.89577 222.104 0.559769C222.104 0.559769 232.384 11.7844 211.228 32.8486L180.776 20.453Z" fill="white"/>
<path opacity="0.2" d="M180.776 20.453C180.776 20.453 209.429 -3.89577 222.104 0.559769C222.104 0.559769 232.384 11.7844 211.228 32.8486L180.776 20.453Z" fill="black"/>
<path d="M270.127 137.091C270.127 168.826 247.354 193.897 225.926 193.897C204.498 193.897 192.53 168.825 192.53 137.091C192.53 105.356 209.937 80.8699 231.329 79.6298C265.216 77.6653 270.127 105.356 270.127 137.091Z" fill="white"/>
<path opacity="0.2" d="M270.127 137.091C270.127 168.826 247.354 193.897 225.926 193.897C204.498 193.897 192.53 168.825 192.53 137.091C192.53 105.356 209.937 80.8699 231.329 79.6298C265.216 77.6653 270.127 105.356 270.127 137.091Z" fill="black"/>
<path d="M224.616 151.006C228.595 151.006 231.82 146.901 231.82 141.838C231.82 136.775 228.595 132.671 224.616 132.671C220.638 132.671 217.413 136.775 217.413 141.838C217.413 146.901 220.638 151.006 224.616 151.006Z" fill="white"/>
<path d="M250.155 143.148C254.133 143.148 257.358 139.043 257.358 133.98C257.358 128.917 254.133 124.813 250.155 124.813C246.177 124.813 242.952 128.917 242.952 133.98C242.952 139.043 246.177 143.148 250.155 143.148Z" fill="white"/>
<path d="M185.464 23.9039C185.469 25.9574 184.99 27.9831 184.066 29.817C182.847 32.2537 180.868 34.2279 178.428 35.4419C173.206 29.872 167.508 24.768 161.4 20.1878C161.944 18.3173 162.907 16.5953 164.215 15.1522C165.344 13.8944 166.723 12.8875 168.265 12.1966C169.807 11.5057 171.477 11.1462 173.167 11.1414C179.957 11.1414 185.464 16.8547 185.464 23.9039Z" fill="#FAD46F"/>
</svg>
