<svg width="1427" height="970" viewBox="0 0 1427 970" fill="none" xmlns="http://www.w3.org/2000/svg">
<path d="M930.584 851.059C969.235 851.059 1000.57 817.799 1000.57 776.772C1000.57 735.744 969.235 702.485 930.584 702.485C891.932 702.485 860.599 735.744 860.599 776.772C860.599 817.799 891.932 851.059 930.584 851.059Z" fill="#FBD56F"/>
<path opacity="0.1" d="M930.584 851.059C969.235 851.059 1000.57 817.799 1000.57 776.772C1000.57 735.744 969.235 702.485 930.584 702.485C891.932 702.485 860.599 735.744 860.599 776.772C860.599 817.799 891.932 851.059 930.584 851.059Z" fill="black"/>
<path d="M942.663 851.059C981.315 851.059 1012.65 818.54 1012.65 778.426C1012.65 738.312 981.315 705.793 942.663 705.793C904.011 705.793 872.677 738.312 872.677 778.426C872.677 818.54 904.011 851.059 942.663 851.059Z" fill="#FBD56F"/>
<path d="M971.009 844.248L963.729 840.194C963.729 840.194 960.324 854.404 961.437 864.53C961.547 865.557 961.969 866.525 962.647 867.305C963.325 868.084 964.226 868.636 965.228 868.887C981.975 873.046 1061.79 890.765 1116.68 865.808C1117.48 865.445 1118.16 864.881 1118.68 864.171C1119.19 863.461 1119.5 862.631 1119.6 861.761C1120.27 855.537 1117.89 842.696 1116.94 840.194C1114.89 834.81 971.009 844.248 971.009 844.248Z" fill="#FBD56F"/>
<path opacity="0.1" d="M971.009 844.248L963.729 840.194C963.729 840.194 960.324 854.404 961.437 864.53C961.547 865.557 961.969 866.525 962.647 867.305C963.325 868.084 964.226 868.636 965.228 868.887C981.975 873.046 1061.79 890.765 1116.68 865.808C1117.48 865.445 1118.16 864.881 1118.68 864.171C1119.19 863.461 1119.5 862.631 1119.6 861.761C1120.27 855.537 1117.89 842.696 1116.94 840.194C1114.89 834.81 971.009 844.248 971.009 844.248Z" fill="black"/>
<path d="M1040.33 857.463C1082.64 857.463 1116.94 849.732 1116.94 840.195C1116.94 830.658 1082.64 822.926 1040.33 822.926C998.026 822.926 963.729 830.658 963.729 840.195C963.729 849.732 998.026 857.463 1040.33 857.463Z" fill="#FBD56F"/>
<path d="M1000.28 818.772L992.996 814.718C992.996 814.718 989.591 828.928 990.704 839.054C990.814 840.082 991.236 841.05 991.914 841.83C992.592 842.609 993.493 843.161 994.495 843.412C1011.24 847.571 1091.06 865.291 1145.95 840.333C1146.74 839.97 1147.43 839.406 1147.94 838.696C1148.45 837.986 1148.77 837.155 1148.86 836.285C1149.54 830.062 1147.15 817.22 1146.2 814.718C1144.16 809.334 1000.28 818.772 1000.28 818.772Z" fill="#FBD56F"/>
<path opacity="0.1" d="M1000.28 818.772L992.996 814.718C992.996 814.718 989.591 828.928 990.704 839.054C990.814 840.082 991.236 841.05 991.914 841.83C992.592 842.609 993.493 843.161 994.495 843.412C1011.24 847.571 1091.06 865.291 1145.95 840.333C1146.74 839.97 1147.43 839.406 1147.94 838.696C1148.45 837.986 1148.77 837.155 1148.86 836.285C1149.54 830.062 1147.15 817.22 1146.2 814.718C1144.16 809.334 1000.28 818.772 1000.28 818.772Z" fill="black"/>
<path d="M1069.6 831.987C1111.91 831.987 1146.2 824.256 1146.2 814.719C1146.2 805.183 1111.91 797.451 1069.6 797.451C1027.29 797.451 992.996 805.183 992.996 814.719C992.996 824.256 1027.29 831.987 1069.6 831.987Z" fill="#FBD56F"/>
<path d="M1026.15 785.288L1018.87 781.234C1018.87 781.234 1015.46 795.444 1016.58 805.57C1016.69 806.597 1017.11 807.566 1017.79 808.345C1018.47 809.124 1019.37 809.677 1020.37 809.928C1037.12 814.087 1116.93 831.806 1171.82 806.848C1172.62 806.485 1173.3 805.921 1173.81 805.211C1174.33 804.502 1174.64 803.671 1174.74 802.801C1175.41 796.578 1173.03 783.736 1172.08 781.234C1170.03 775.85 1026.15 785.288 1026.15 785.288Z" fill="#FBD56F"/>
<path opacity="0.1" d="M1026.15 785.288L1018.87 781.234C1018.87 781.234 1015.46 795.444 1016.58 805.57C1016.69 806.597 1017.11 807.566 1017.79 808.345C1018.47 809.124 1019.37 809.677 1020.37 809.928C1037.12 814.087 1116.93 831.806 1171.82 806.848C1172.62 806.485 1173.3 805.921 1173.81 805.211C1174.33 804.502 1174.64 803.671 1174.74 802.801C1175.41 796.578 1173.03 783.736 1172.08 781.234C1170.03 775.85 1026.15 785.288 1026.15 785.288Z" fill="black"/>
<path d="M1095.47 798.504C1137.78 798.504 1172.08 790.773 1172.08 781.237C1172.08 771.7 1137.78 763.969 1095.47 763.969C1053.17 763.969 1018.87 771.7 1018.87 781.237C1018.87 790.773 1053.17 798.504 1095.47 798.504Z" fill="#FBD56F"/>
<path d="M997.496 750.431L990.216 746.378C990.216 746.378 986.811 760.587 987.924 770.712C988.034 771.739 988.456 772.708 989.134 773.487C989.812 774.266 990.713 774.819 991.715 775.07C1008.46 779.228 1088.28 796.946 1143.17 771.991C1143.96 771.627 1144.65 771.063 1145.16 770.354C1145.67 769.644 1145.99 768.813 1146.08 767.943C1146.76 761.721 1144.37 748.88 1143.42 746.378C1141.38 740.994 997.496 750.431 997.496 750.431Z" fill="#FBD56F"/>
<path opacity="0.1" d="M997.496 750.431L990.216 746.378C990.216 746.378 986.811 760.587 987.924 770.712C988.034 771.739 988.456 772.708 989.134 773.487C989.812 774.266 990.713 774.819 991.715 775.07C1008.46 779.228 1088.28 796.946 1143.17 771.991C1143.96 771.627 1144.65 771.063 1145.16 770.354C1145.67 769.644 1145.99 768.813 1146.08 767.943C1146.76 761.721 1144.37 748.88 1143.42 746.378C1141.38 740.994 997.496 750.431 997.496 750.431Z" fill="black"/>
<path d="M1066.82 763.644C1109.13 763.644 1143.42 755.913 1143.42 746.377C1143.42 736.84 1109.13 729.11 1066.82 729.11C1024.51 729.11 990.217 736.84 990.217 746.377C990.217 755.913 1024.51 763.644 1066.82 763.644Z" fill="#FBD56F"/>
<path d="M1061.95 722.458L1054.68 718.404C1054.68 718.404 1051.27 732.613 1052.38 742.739C1052.49 743.766 1052.92 744.734 1053.59 745.514C1054.27 746.293 1055.17 746.845 1056.17 747.096C1072.92 751.255 1152.74 768.973 1207.62 744.017C1208.42 743.654 1209.11 743.09 1209.62 742.38C1210.13 741.671 1210.45 740.84 1210.54 739.97C1211.22 733.747 1208.83 720.906 1207.88 718.404C1205.83 713.02 1061.95 722.458 1061.95 722.458Z" fill="#FBD56F"/>
<path opacity="0.1" d="M1061.95 722.458L1054.68 718.404C1054.68 718.404 1051.27 732.613 1052.38 742.739C1052.49 743.766 1052.92 744.734 1053.59 745.514C1054.27 746.293 1055.17 746.845 1056.17 747.096C1072.92 751.255 1152.74 768.973 1207.62 744.017C1208.42 743.654 1209.11 743.09 1209.62 742.38C1210.13 741.671 1210.45 740.84 1210.54 739.97C1211.22 733.747 1208.83 720.906 1207.88 718.404C1205.83 713.02 1061.95 722.458 1061.95 722.458Z" fill="black"/>
<path d="M1131.28 735.671C1173.59 735.671 1207.88 727.94 1207.88 718.404C1207.88 708.868 1173.59 701.138 1131.28 701.138C1088.97 701.138 1054.67 708.868 1054.67 718.404C1054.67 727.94 1088.97 735.671 1131.28 735.671Z" fill="#FBD56F"/>
<path d="M1018.4 703.659L1011.12 699.605C1011.12 699.605 1007.72 713.815 1008.83 723.941C1008.94 724.968 1009.36 725.937 1010.04 726.716C1010.72 727.495 1011.62 728.048 1012.62 728.298C1029.37 732.457 1109.19 750.176 1164.08 725.219C1164.87 724.856 1165.56 724.292 1166.07 723.582C1166.58 722.873 1166.9 722.042 1166.99 721.172C1167.67 714.949 1165.28 702.107 1164.33 699.605C1162.28 694.221 1018.4 703.659 1018.4 703.659Z" fill="#FBD56F"/>
<path opacity="0.1" d="M1018.4 703.659L1011.12 699.605C1011.12 699.605 1007.72 713.815 1008.83 723.941C1008.94 724.968 1009.36 725.937 1010.04 726.716C1010.72 727.495 1011.62 728.048 1012.62 728.298C1029.37 732.457 1109.19 750.176 1164.08 725.219C1164.87 724.856 1165.56 724.292 1166.07 723.582C1166.58 722.873 1166.9 722.042 1166.99 721.172C1167.67 714.949 1165.28 702.107 1164.33 699.605C1162.28 694.221 1018.4 703.659 1018.4 703.659Z" fill="black"/>
<path d="M1087.73 716.871C1130.03 716.871 1164.33 709.14 1164.33 699.603C1164.33 690.066 1130.03 682.335 1087.73 682.335C1045.42 682.335 1011.12 690.066 1011.12 699.603C1011.12 709.14 1045.42 716.871 1087.73 716.871Z" fill="#FBD56F"/>
<path d="M1047.48 667.362L1040.2 663.308C1040.2 663.308 1036.8 677.518 1037.91 687.643C1038.02 688.671 1038.44 689.639 1039.12 690.419C1039.8 691.198 1040.7 691.75 1041.7 692.001C1058.45 696.16 1138.26 713.879 1193.15 688.922C1193.95 688.559 1194.63 687.995 1195.15 687.285C1195.66 686.575 1195.97 685.745 1196.07 684.875C1196.74 678.651 1194.36 665.81 1193.41 663.308C1191.36 657.924 1047.48 667.362 1047.48 667.362Z" fill="#FBD56F"/>
<path opacity="0.1" d="M1047.48 667.362L1040.2 663.308C1040.2 663.308 1036.8 677.518 1037.91 687.643C1038.02 688.671 1038.44 689.639 1039.12 690.419C1039.8 691.198 1040.7 691.75 1041.7 692.001C1058.45 696.16 1138.26 713.879 1193.15 688.922C1193.95 688.559 1194.63 687.995 1195.15 687.285C1195.66 686.575 1195.97 685.745 1196.07 684.875C1196.74 678.651 1194.36 665.81 1193.41 663.308C1191.36 657.924 1047.48 667.362 1047.48 667.362Z" fill="black"/>
<path d="M1116.8 680.574C1159.11 680.574 1193.41 672.844 1193.41 663.308C1193.41 653.773 1159.11 646.043 1116.8 646.043C1074.5 646.043 1040.2 653.773 1040.2 663.308C1040.2 672.844 1074.5 680.574 1116.8 680.574Z" fill="#FBD56F"/>
<path d="M1061.82 624.277L1054.54 620.223C1054.54 620.223 1051.14 634.433 1052.25 644.56C1052.36 645.587 1052.78 646.555 1053.46 647.335C1054.14 648.114 1055.04 648.667 1056.04 648.917C1072.79 653.076 1152.61 670.796 1207.49 645.838C1208.29 645.475 1208.98 644.911 1209.49 644.201C1210 643.491 1210.32 642.661 1210.41 641.791C1211.08 635.567 1208.7 622.725 1207.75 620.223C1205.7 614.839 1061.82 624.277 1061.82 624.277Z" fill="#FBD56F"/>
<path opacity="0.1" d="M1061.82 624.277L1054.54 620.223C1054.54 620.223 1051.14 634.433 1052.25 644.56C1052.36 645.587 1052.78 646.555 1053.46 647.335C1054.14 648.114 1055.04 648.667 1056.04 648.917C1072.79 653.076 1152.61 670.796 1207.49 645.838C1208.29 645.475 1208.98 644.911 1209.49 644.201C1210 643.491 1210.32 642.661 1210.41 641.791C1211.08 635.567 1208.7 622.725 1207.75 620.223C1205.7 614.839 1061.82 624.277 1061.82 624.277Z" fill="black"/>
<path d="M1131.15 637.494C1173.45 637.494 1207.75 629.763 1207.75 620.226C1207.75 610.689 1173.45 602.958 1131.15 602.958C1088.84 602.958 1054.54 610.689 1054.54 620.226C1054.54 629.763 1088.84 637.494 1131.15 637.494Z" fill="#FBD56F"/>
<path d="M1191.14 854.242L1183.86 850.189C1183.86 850.189 1180.45 864.397 1181.57 874.522C1181.68 875.549 1182.1 876.518 1182.78 877.297C1183.45 878.076 1184.35 878.629 1185.36 878.879C1202.1 883.038 1281.92 900.755 1336.81 875.801C1337.6 875.437 1338.29 874.873 1338.8 874.164C1339.31 873.454 1339.63 872.623 1339.72 871.753C1340.4 865.531 1338.01 852.69 1337.06 850.189C1335.02 844.805 1191.14 854.242 1191.14 854.242Z" fill="#FBD56F"/>
<path opacity="0.1" d="M1191.14 854.242L1183.86 850.189C1183.86 850.189 1180.45 864.397 1181.57 874.522C1181.68 875.549 1182.1 876.518 1182.78 877.297C1183.45 878.076 1184.35 878.629 1185.36 878.879C1202.1 883.038 1281.92 900.755 1336.81 875.801C1337.6 875.437 1338.29 874.873 1338.8 874.164C1339.31 873.454 1339.63 872.623 1339.72 871.753C1340.4 865.531 1338.01 852.69 1337.06 850.189C1335.02 844.805 1191.14 854.242 1191.14 854.242Z" fill="black"/>
<path d="M1260.46 867.453C1302.77 867.453 1337.06 859.722 1337.06 850.187C1337.06 840.651 1302.77 832.921 1260.46 832.921C1218.15 832.921 1183.86 840.651 1183.86 850.187C1183.86 859.722 1218.15 867.453 1260.46 867.453Z" fill="#FBD56F"/>
<path d="M1217.01 820.756L1209.73 816.703C1209.73 816.703 1206.33 830.913 1207.44 841.039C1207.55 842.066 1207.97 843.034 1208.65 843.814C1209.33 844.593 1210.23 845.146 1211.23 845.396C1227.98 849.555 1307.79 867.275 1362.68 842.317C1363.48 841.954 1364.16 841.39 1364.68 840.68C1365.19 839.97 1365.51 839.14 1365.6 838.27C1366.27 832.046 1363.89 819.204 1362.94 816.703C1360.89 811.318 1217.01 820.756 1217.01 820.756Z" fill="#FBD56F"/>
<path opacity="0.1" d="M1217.01 820.756L1209.73 816.703C1209.73 816.703 1206.33 830.913 1207.44 841.039C1207.55 842.066 1207.97 843.034 1208.65 843.814C1209.33 844.593 1210.23 845.146 1211.23 845.396C1227.98 849.555 1307.79 867.275 1362.68 842.317C1363.48 841.954 1364.16 841.39 1364.68 840.68C1365.19 839.97 1365.51 839.14 1365.6 838.27C1366.27 832.046 1363.89 819.204 1362.94 816.703C1360.89 811.318 1217.01 820.756 1217.01 820.756Z" fill="black"/>
<path d="M1286.33 833.969C1328.64 833.969 1362.93 826.239 1362.93 816.703C1362.93 807.168 1328.64 799.437 1286.33 799.437C1244.03 799.437 1209.73 807.168 1209.73 816.703C1209.73 826.239 1244.03 833.969 1286.33 833.969Z" fill="#FBD56F"/>
<path d="M1188.36 785.9L1181.08 781.846C1181.08 781.846 1177.67 796.056 1178.79 806.182C1178.89 807.21 1179.32 808.178 1179.99 808.958C1180.67 809.737 1181.57 810.289 1182.58 810.54C1199.32 814.699 1279.14 832.419 1334.03 807.461C1334.82 807.098 1335.51 806.534 1336.02 805.824C1336.53 805.114 1336.85 804.284 1336.95 803.414C1337.62 797.19 1335.24 784.348 1334.28 781.846C1332.24 776.462 1188.36 785.9 1188.36 785.9Z" fill="#FBD56F"/>
<path opacity="0.1" d="M1188.36 785.9L1181.08 781.846C1181.08 781.846 1177.67 796.056 1178.79 806.182C1178.89 807.21 1179.32 808.178 1179.99 808.958C1180.67 809.737 1181.57 810.289 1182.58 810.54C1199.32 814.699 1279.14 832.419 1334.03 807.461C1334.82 807.098 1335.51 806.534 1336.02 805.824C1336.53 805.114 1336.85 804.284 1336.95 803.414C1337.62 797.19 1335.24 784.348 1334.28 781.846C1332.24 776.462 1188.36 785.9 1188.36 785.9Z" fill="black"/>
<path d="M1257.68 799.115C1299.99 799.115 1334.28 791.384 1334.28 781.847C1334.28 772.311 1299.99 764.58 1257.68 764.58C1215.37 764.58 1181.08 772.311 1181.08 781.847C1181.08 791.384 1215.37 799.115 1257.68 799.115Z" fill="#FBD56F"/>
<path d="M1252.82 757.927L1245.54 753.873C1245.54 753.873 1242.13 768.084 1243.24 778.21C1243.35 779.237 1243.78 780.206 1244.45 780.986C1245.13 781.765 1246.03 782.317 1247.03 782.568C1263.78 786.727 1343.6 804.447 1398.49 779.489C1399.28 779.126 1399.97 778.561 1400.48 777.852C1400.99 777.142 1401.31 776.311 1401.4 775.441C1402.08 769.218 1399.69 756.375 1398.74 753.873C1396.69 748.489 1252.82 757.927 1252.82 757.927Z" fill="#FBD56F"/>
<path opacity="0.1" d="M1252.82 757.927L1245.54 753.873C1245.54 753.873 1242.13 768.084 1243.24 778.21C1243.35 779.237 1243.78 780.206 1244.45 780.986C1245.13 781.765 1246.03 782.317 1247.03 782.568C1263.78 786.727 1343.6 804.447 1398.49 779.489C1399.28 779.126 1399.97 778.561 1400.48 777.852C1400.99 777.142 1401.31 776.311 1401.4 775.441C1402.08 769.218 1399.69 756.375 1398.74 753.873C1396.69 748.489 1252.82 757.927 1252.82 757.927Z" fill="black"/>
<path d="M1322.14 771.142C1364.45 771.142 1398.74 763.411 1398.74 753.874C1398.74 744.337 1364.45 736.606 1322.14 736.606C1279.83 736.606 1245.54 744.337 1245.54 753.874C1245.54 763.411 1279.83 771.142 1322.14 771.142Z" fill="#FBD56F"/>
<path d="M1209.26 739.126L1201.98 735.073C1201.98 735.073 1198.58 749.282 1199.69 759.408C1199.8 760.435 1200.22 761.404 1200.9 762.183C1201.58 762.963 1202.48 763.515 1203.48 763.766C1220.23 767.925 1300.05 785.644 1354.93 760.687C1355.73 760.324 1356.42 759.759 1356.93 759.05C1357.44 758.34 1357.76 757.509 1357.85 756.639C1358.53 750.416 1356.14 737.574 1355.19 735.073C1353.14 729.688 1209.26 739.126 1209.26 739.126Z" fill="#FBD56F"/>
<path opacity="0.1" d="M1209.26 739.126L1201.98 735.073C1201.98 735.073 1198.58 749.282 1199.69 759.408C1199.8 760.435 1200.22 761.404 1200.9 762.183C1201.58 762.963 1202.48 763.515 1203.48 763.766C1220.23 767.925 1300.05 785.644 1354.93 760.687C1355.73 760.324 1356.42 759.759 1356.93 759.05C1357.44 758.34 1357.76 757.509 1357.85 756.639C1358.53 750.416 1356.14 737.574 1355.19 735.073C1353.14 729.688 1209.26 739.126 1209.26 739.126Z" fill="black"/>
<path d="M1278.59 752.34C1320.89 752.34 1355.19 744.609 1355.19 735.073C1355.19 725.536 1320.89 717.805 1278.59 717.805C1236.28 717.805 1201.98 725.536 1201.98 735.073C1201.98 744.609 1236.28 752.34 1278.59 752.34Z" fill="#FBD56F"/>
<path d="M1238.34 702.83L1231.06 698.776C1231.06 698.776 1227.66 712.985 1228.77 723.11C1228.88 724.137 1229.3 725.106 1229.98 725.885C1230.66 726.665 1231.56 727.217 1232.56 727.468C1249.31 731.627 1329.13 749.345 1384.01 724.389C1384.81 724.026 1385.5 723.462 1386.01 722.752C1386.52 722.042 1386.84 721.212 1386.93 720.342C1387.6 714.119 1385.22 701.278 1384.27 698.776C1382.22 693.392 1238.34 702.83 1238.34 702.83Z" fill="#FBD56F"/>
<path opacity="0.1" d="M1238.34 702.83L1231.06 698.776C1231.06 698.776 1227.66 712.985 1228.77 723.11C1228.88 724.137 1229.3 725.106 1229.98 725.885C1230.66 726.665 1231.56 727.217 1232.56 727.468C1249.31 731.627 1329.13 749.345 1384.01 724.389C1384.81 724.026 1385.5 723.462 1386.01 722.752C1386.52 722.042 1386.84 721.212 1386.93 720.342C1387.6 714.119 1385.22 701.278 1384.27 698.776C1382.22 693.392 1238.34 702.83 1238.34 702.83Z" fill="black"/>
<path d="M1307.66 716.043C1349.97 716.043 1384.27 708.312 1384.27 698.775C1384.27 689.238 1349.97 681.507 1307.66 681.507C1265.36 681.507 1231.06 689.238 1231.06 698.775C1231.06 708.312 1265.36 716.043 1307.66 716.043Z" fill="#FBD56F"/>
<path d="M1252.69 659.745L1245.41 655.691C1245.41 655.691 1242 669.901 1243.11 680.027C1243.22 681.054 1243.65 682.023 1244.32 682.802C1245 683.582 1245.9 684.134 1246.9 684.385C1263.65 688.544 1343.47 706.263 1398.36 681.306C1399.15 680.943 1399.84 680.378 1400.35 679.669C1400.86 678.959 1401.18 678.128 1401.27 677.258C1401.95 671.035 1399.56 658.193 1398.61 655.691C1396.56 650.307 1252.69 659.745 1252.69 659.745Z" fill="#FBD56F"/>
<path opacity="0.1" d="M1252.69 659.745L1245.41 655.691C1245.41 655.691 1242 669.901 1243.11 680.027C1243.22 681.054 1243.65 682.023 1244.32 682.802C1245 683.582 1245.9 684.134 1246.9 684.385C1263.65 688.544 1343.47 706.263 1398.36 681.306C1399.15 680.943 1399.84 680.378 1400.35 679.669C1400.86 678.959 1401.18 678.128 1401.27 677.258C1401.95 671.035 1399.56 658.193 1398.61 655.691C1396.56 650.307 1252.69 659.745 1252.69 659.745Z" fill="black"/>
<path d="M1322.01 672.962C1364.31 672.962 1398.61 665.231 1398.61 655.694C1398.61 646.157 1364.31 638.426 1322.01 638.426C1279.7 638.426 1245.4 646.157 1245.4 655.694C1245.4 665.231 1279.7 672.962 1322.01 672.962Z" fill="#FBD56F"/>
<path opacity="0.1" d="M1426.25 671.503C1426.25 671.503 1394.64 684.92 1390.32 688.274C1386.01 691.628 1426.25 671.503 1426.25 671.503Z" fill="black"/>
<path d="M1089.57 957.048C1128.22 957.048 1159.55 923.788 1159.55 882.761C1159.55 841.733 1128.22 808.474 1089.57 808.474C1050.91 808.474 1019.58 841.733 1019.58 882.761C1019.58 923.788 1050.91 957.048 1089.57 957.048Z" fill="#FBD56F"/>
<path opacity="0.1" d="M1089.57 957.048C1128.22 957.048 1159.55 923.788 1159.55 882.761C1159.55 841.733 1128.22 808.474 1089.57 808.474C1050.91 808.474 1019.58 841.733 1019.58 882.761C1019.58 923.788 1050.91 957.048 1089.57 957.048Z" fill="black"/>
<path d="M1101.64 957.048C1140.3 957.048 1171.63 924.529 1171.63 884.415C1171.63 844.301 1140.3 811.782 1101.64 811.782C1062.99 811.782 1031.66 844.301 1031.66 884.415C1031.66 924.529 1062.99 957.048 1101.64 957.048Z" fill="#FBD56F"/>
<path d="M87.5225 923.585C135.261 923.585 173.96 917.042 173.96 908.972C173.96 900.901 135.261 894.359 87.5225 894.359C39.7844 894.359 1.08496 900.901 1.08496 908.972C1.08496 917.042 39.7844 923.585 87.5225 923.585Z" fill="white"/>
<path d="M123.264 885.066C126.965 881.626 130.438 877.569 131.505 872.629C132.571 867.69 130.466 861.767 125.746 859.962C120.457 857.939 114.806 861.605 110.521 865.307C106.236 869.009 101.326 873.234 95.7179 872.45C98.6025 869.836 100.761 866.519 101.982 862.822C103.203 859.126 103.447 855.176 102.688 851.358C102.441 849.781 101.771 848.3 100.749 847.074C97.8134 843.935 92.4912 845.283 88.9759 847.756C77.7968 855.62 74.6775 870.805 74.6167 884.473C73.4893 879.543 74.4388 874.405 74.411 869.348C74.3832 864.291 72.9973 858.685 68.7312 855.969C66.0738 854.538 63.0851 853.835 60.0685 853.932C55.0433 853.747 49.4465 854.251 46.0146 857.927C41.7506 862.494 42.8565 870.156 46.5661 875.184C50.2757 880.211 55.9183 883.361 61.1121 886.834C65.2785 889.316 68.8316 892.705 71.5072 896.749C71.8217 897.313 72.0799 897.906 72.2779 898.521H103.781C110.853 894.936 117.407 890.41 123.264 885.066V885.066Z" fill="white"/>
<path d="M869.199 813.69C873.05 818.962 876.199 824.713 878.568 830.797C879.194 832.37 879.806 834.023 880.386 835.757C889.698 863.588 874.943 896.962 870.724 893.362C866.506 889.762 853.36 883.082 850.819 892.469C848.277 901.855 838.887 911.448 838.887 911.448C821.781 928.654 806.296 910.064 796.132 890.856C792.811 884.519 789.859 877.995 787.289 871.318C785.033 865.419 783.737 861.342 783.737 861.342L854.989 800.633C854.989 800.633 861.877 803.796 869.199 813.69Z" fill="white"/>
<path d="M756.9 852.508C760.751 857.78 763.9 863.531 766.268 869.615C766.894 871.188 767.507 872.841 768.087 874.575C777.399 902.406 762.644 935.78 758.425 932.18C754.207 928.58 741.061 921.901 738.519 931.287C735.977 940.673 726.588 950.266 726.588 950.266C709.481 967.472 693.997 948.882 683.833 929.674C680.512 923.337 677.559 916.813 674.99 910.136C672.733 904.237 671.437 900.16 671.437 900.16L742.689 839.452C742.689 839.452 749.577 842.614 756.9 852.508Z" fill="white"/>
<path d="M531.417 906.136C531.017 912.652 529.771 919.09 527.712 925.286C527.19 926.896 526.607 928.56 525.946 930.265C515.354 957.635 482.695 973.913 481.745 968.449C480.795 962.985 474.937 949.453 466.99 955.057C459.043 960.661 445.692 962.055 445.692 962.055C421.541 964.384 421.484 940.189 425.917 918.914C427.405 911.916 429.295 905.009 431.578 898.228C433.606 892.246 435.21 888.28 435.21 888.28L528.809 887.014C528.809 887.014 532.094 893.845 531.417 906.136Z" fill="white"/>
<path d="M410.481 875.636C410.081 882.153 408.836 888.59 406.776 894.786C406.254 896.396 405.671 898.06 405.011 899.765C394.419 927.134 361.76 943.411 360.809 937.947C359.859 932.484 354.001 918.952 346.054 924.556C338.107 930.16 324.756 931.554 324.756 931.554C300.605 933.883 300.547 909.689 304.981 888.414C306.469 881.416 308.359 874.509 310.642 867.729C312.669 861.747 314.273 857.781 314.273 857.781L407.873 856.516C407.873 856.516 411.158 863.346 410.481 875.636Z" fill="white"/>
<path opacity="0.2" d="M869.199 813.69C873.05 818.962 876.199 824.713 878.568 830.797C879.194 832.37 879.806 834.023 880.386 835.757C889.698 863.588 874.943 896.962 870.724 893.362C866.506 889.762 853.36 883.082 850.819 892.469C848.277 901.855 838.887 911.448 838.887 911.448C821.781 928.654 806.296 910.064 796.132 890.856C792.811 884.519 789.859 877.995 787.289 871.318C785.033 865.419 783.737 861.342 783.737 861.342L854.989 800.633C854.989 800.633 861.877 803.796 869.199 813.69Z" fill="black"/>
<path opacity="0.2" d="M756.9 852.508C760.751 857.78 763.9 863.531 766.268 869.615C766.894 871.188 767.507 872.841 768.087 874.575C777.399 902.406 762.644 935.78 758.425 932.18C754.207 928.58 741.061 921.901 738.519 931.287C735.977 940.673 726.588 950.266 726.588 950.266C709.481 967.472 693.997 948.882 683.833 929.674C680.512 923.337 677.559 916.813 674.99 910.136C672.733 904.237 671.437 900.16 671.437 900.16L742.689 839.452C742.689 839.452 749.577 842.614 756.9 852.508Z" fill="black"/>
<path opacity="0.2" d="M531.417 906.136C531.017 912.652 529.771 919.09 527.712 925.286C527.19 926.896 526.607 928.56 525.946 930.265C515.354 957.635 482.695 973.913 481.745 968.449C480.795 962.985 474.937 949.453 466.99 955.057C459.043 960.661 445.692 962.055 445.692 962.055C421.541 964.384 421.484 940.189 425.917 918.914C427.405 911.916 429.295 905.009 431.578 898.228C433.606 892.246 435.21 888.28 435.21 888.28L528.809 887.014C528.809 887.014 532.094 893.845 531.417 906.136Z" fill="black"/>
<path opacity="0.2" d="M410.481 875.636C410.081 882.153 408.836 888.59 406.776 894.786C406.254 896.396 405.671 898.06 405.011 899.765C394.419 927.134 361.76 943.411 360.809 937.947C359.859 932.484 354.001 918.952 346.054 924.556C338.107 930.16 324.756 931.554 324.756 931.554C300.605 933.883 300.547 909.689 304.981 888.414C306.469 881.416 308.359 874.509 310.642 867.729C312.669 861.747 314.273 857.781 314.273 857.781L407.873 856.516C407.873 856.516 411.158 863.346 410.481 875.636Z" fill="black"/>
<path d="M1059.26 465.428C1059.26 715.426 974.689 918.089 584.416 918.089C322.167 918.089 119.277 852.928 109.573 465.428C103.313 215.508 322.167 12.7664 584.416 12.7664C846.665 12.7664 1059.26 215.43 1059.26 465.428Z" fill="white"/>
<path opacity="0.2" d="M495.34 20.6691H495.37C495.363 20.673 495.356 20.6756 495.348 20.6765L495.34 20.6691Z" fill="black"/>
<path opacity="0.2" d="M496.269 20.5165C497.475 20.3225 499.86 19.99 503.325 19.7267L495.604 20.6412C495.715 20.6134 495.853 20.5857 496.02 20.558C496.103 20.5441 496.172 20.5302 496.269 20.5165Z" fill="black"/>
<path opacity="0.2" d="M847.141 205.478L812.481 217.955C794.812 194.261 775.801 171.597 755.541 150.077C733.428 126.491 709.301 104.878 683.434 85.4838C594.69 19.7125 526.049 18.035 503.382 19.7263L555.483 13.5984C604.725 22.0711 652.079 39.189 695.357 64.1608C725.634 81.6146 753.834 102.447 779.415 126.258C824.778 168.363 847.141 205.478 847.141 205.478Z" fill="black"/>
<path opacity="0.2" d="M533.813 229.046C533.813 229.046 488.061 76.5412 526.881 34.949C526.881 34.949 587.883 14.153 633.634 131.997L533.813 229.046Z" fill="black"/>
<path d="M765.48 86.6066C765.48 86.6066 886.809 -16.4963 940.483 2.37027C940.483 2.37027 984.01 49.9 894.429 139.095L765.48 86.6066Z" fill="white"/>
<path opacity="0.2" d="M765.48 86.6066C765.48 86.6066 886.809 -16.4963 940.483 2.37027C940.483 2.37027 984.01 49.9 894.429 139.095L765.48 86.6066Z" fill="black"/>
<path d="M1143.83 580.499C1143.83 714.877 1047.4 821.039 956.667 821.039C865.933 821.039 815.254 714.877 815.254 580.499C815.254 446.121 888.961 342.437 979.543 337.186C1123.04 328.867 1143.83 446.121 1143.83 580.499Z" fill="white"/>
<path opacity="0.2" d="M1143.83 580.499C1143.83 714.877 1047.4 821.039 956.667 821.039C865.933 821.039 815.254 714.877 815.254 580.499C815.254 446.121 888.961 342.437 979.543 337.186C1123.04 328.867 1143.83 446.121 1143.83 580.499Z" fill="black"/>
<path d="M951.12 639.421C967.966 639.421 981.622 622.041 981.622 600.602C981.622 579.163 967.966 561.783 951.12 561.783C934.275 561.783 920.618 579.163 920.618 600.602C920.618 622.041 934.275 639.421 951.12 639.421Z" fill="white"/>
<path d="M1059.26 606.147C1076.11 606.147 1089.76 588.767 1089.76 567.329C1089.76 545.89 1076.11 528.51 1059.26 528.51C1042.42 528.51 1028.76 545.89 1028.76 567.329C1028.76 588.767 1042.42 606.147 1059.26 606.147Z" fill="white"/>
<path d="M785.335 101.219C785.356 109.914 783.327 118.492 779.415 126.258C774.25 136.576 765.871 144.935 755.541 150.076C733.428 126.491 709.301 104.878 683.434 85.4837C685.738 77.5632 689.816 70.2714 695.357 64.1609C700.135 58.8348 705.977 54.571 712.506 51.6455C719.036 48.7199 726.107 47.1977 733.261 47.1775C762.015 47.1775 785.335 71.37 785.335 101.219Z" fill="#FAD46F"/>
</svg>
